<svg width="25" height="26" viewBox="0 0 25 26" fill="none" xmlns="http://www.w3.org/2000/svg">
<g clip-path="url(#clip0_31_628)">
<path fill-rule="evenodd" clip-rule="evenodd" d="M9.41583 1.48418C7.77353 2.29012 6.4299 2.97211 6.43018 2.99985C6.43091 3.07145 10.3718 4.95162 10.5116 4.94704C10.5753 4.94503 11.0368 4.74487 11.5373 4.50229L12.4474 4.06132L13.4413 4.54261L14.4351 5.02399L16.0628 4.33499C18.5153 3.29677 18.77 3.183 18.7301 3.14478C18.6771 3.09406 17.7975 2.64887 15.4108 1.46519C14.2574 0.8931 13.1379 0.332187 12.923 0.218687C12.7081 0.105186 12.503 0.0138829 12.4671 0.0156502C12.4313 0.0174176 11.0582 0.678261 9.41583 1.48418ZM2.2127 4.99811L0.503084 5.83003V9.48115C0.503084 11.4893 0.525533 13.1323 0.55307 13.1323C0.580511 13.1323 1.42165 12.7888 2.42222 12.3689L4.24144 11.6056V7.75708L5.13043 8.21336C5.81548 8.56464 6.50093 8.91521 7.1868 9.26506L8.35415 9.86048L8.87359 9.6392C9.19936 9.5002 9.52448 9.35985 9.84894 9.21815C10.0997 9.10815 10.7151 8.847 11.2166 8.6377C11.7181 8.42832 12.1823 8.21776 12.2481 8.16977C12.3356 8.10603 11.2693 7.55096 8.30445 6.11664C6.06957 5.03546 4.16932 4.1543 4.08169 4.15852C3.99406 4.16275 3.15302 4.54051 2.2127 4.99811ZM19.0382 5.23173C17.8739 5.72692 16.9204 6.15187 16.9193 6.1761C16.9183 6.2003 17.5529 6.55578 18.3297 6.96593C19.1063 7.37617 19.7418 7.73374 19.7418 7.76067C19.7418 7.78754 19.0545 8.10126 18.2146 8.45797C17.3746 8.81459 15.2513 9.71792 13.4961 10.4654L7.61505 12.9697C6.13567 13.5997 4.80219 14.1676 4.65175 14.2318C1.63005 15.5204 0.7995 15.878 0.685442 15.9394C0.570749 16.0012 0.544771 16.3602 0.524357 18.1621L0.5 20.3112L2.02882 21.0451L3.55761 21.7789L5.67751 20.8776C6.84348 20.3819 7.79741 19.9504 7.79741 19.9186C7.79741 19.8869 7.58195 19.7546 7.31873 19.6246C7.05538 19.4945 6.51177 19.2066 6.11059 18.9846C5.70943 18.7626 5.30942 18.5589 5.22159 18.5319C5.1338 18.505 5.06324 18.4579 5.06467 18.4271C5.06614 18.3965 5.99964 17.9788 7.13901 17.4988C9.35201 16.5667 11.0456 15.8483 14.6814 14.2993C16.3072 13.6068 17.9333 12.9148 19.5595 12.2231C20.9887 11.6154 22.6504 10.9056 23.2522 10.6458L24.3464 10.1735L24.3707 7.99993L24.3952 5.82643L22.8446 5.07665C21.9917 4.66432 21.2627 4.32795 21.2245 4.32918C21.1863 4.33032 20.2025 4.73642 19.0382 5.23173ZM23.931 13.0732C23.7025 13.1783 23.2511 13.3752 22.928 13.5106C22.6049 13.646 21.9917 13.9067 21.5654 14.0899L20.7904 14.4229L20.7727 16.3311C20.763 17.3806 20.7219 18.2347 20.6815 18.2291C20.5898 18.2163 19.1372 17.5145 17.6771 16.7774C16.6232 16.2455 16.557 16.2243 16.3094 16.3399C16.1663 16.4067 15.3106 16.7682 14.4079 17.1434C13.5052 17.5185 12.7372 17.85 12.7011 17.88C12.6651 17.9099 14.4818 18.8376 16.7384 19.9415L20.8412 21.9486L22.5938 21.0944C23.5577 20.6248 24.3773 20.1963 24.415 20.1424C24.5 20.0212 24.4927 12.8654 24.4077 12.8751C24.374 12.8789 24.1595 12.968 23.931 13.0732ZM14.2255 21.4724C13.9215 21.5955 13.6176 21.7188 13.3137 21.8423C12.3962 22.2162 12.576 22.2286 11.4844 21.7167C10.7574 21.3758 10.444 21.2706 10.3079 21.3216C10.2059 21.3599 9.32775 21.7321 8.35634 22.1487C7.38499 22.5653 6.55654 22.9061 6.51533 22.9061C6.10779 22.9061 6.78533 23.2875 9.3998 24.5299L12.466 25.9868L13.756 25.3868C14.4656 25.0568 15.8967 24.396 16.9365 23.9183C17.9761 23.4405 18.8138 23.0372 18.7982 23.022C18.7824 23.0069 17.9112 22.5854 16.8622 22.0855L14.955 21.1768L14.2255 21.4724Z" fill="url(#paint0_linear_31_628)"/>
</g>
<defs>
<linearGradient id="paint0_linear_31_628" x1="2.76641" y1="-0.969495" x2="31.2054" y2="0.802168" gradientUnits="userSpaceOnUse">
<stop stop-color="white"/>
<stop offset="1" stop-color="#8978F1"/>
</linearGradient>
<clipPath id="clip0_31_628">
<rect width="24" height="26" fill="white" transform="translate(0.5)"/>
</clipPath>
</defs>
</svg>
