<svg width="26" height="31" viewBox="0 0 26 31" fill="none" xmlns="http://www.w3.org/2000/svg">
<path fill-rule="evenodd" clip-rule="evenodd" d="M0.529814 0.687221C3.94517 4.97932 7.69509 10.3714 8.30168 11.2436C8.33401 11.2902 8.35723 11.3237 8.37133 11.3437C8.69463 11.8064 8.96154 12.1504 9.16421 12.4116C9.61427 12.9915 9.74773 13.1635 9.47925 13.3216C9.26277 13.4491 9.03916 13.4911 8.81626 13.4911C8.56417 13.4911 8.28003 13.3656 8.07323 13.1623C7.92696 13.0187 6.92656 11.5141 5.56412 9.32545C4.52171 7.65068 3.64936 6.26135 3.62571 6.23814C3.5706 6.18426 3.57159 6.18616 5.45787 9.68081C6.64228 11.8752 7.45254 13.497 7.45254 13.6006C7.45254 13.8117 7.397 13.9227 7.14547 14.2129C6.72632 14.6972 6.53903 15.2412 6.40372 16.367C6.25218 17.629 5.82576 18.5207 4.6442 20.0464C3.95258 20.9396 3.83935 21.1033 3.66488 21.4633C3.44498 21.9166 3.38459 22.1705 3.36009 22.743C3.33417 23.3483 3.38459 23.7393 3.56319 24.3179C3.71957 24.8245 3.88265 25.1591 4.29996 25.8282C4.66001 26.4055 4.86724 26.8346 4.86724 27.0025C4.86724 27.1361 4.89188 27.1363 5.44976 27.0059C6.78499 26.6936 7.86914 26.1446 8.47886 25.4717C8.85629 25.0552 8.94487 24.8252 8.94772 24.2545C8.94972 23.8812 8.9369 23.8031 8.83948 23.5883C8.68082 23.2386 8.39212 22.9481 7.75562 22.4976C6.92144 21.9071 6.56523 21.4319 6.46682 20.7783C6.38606 20.242 6.47963 19.8636 6.94109 18.8623C7.41879 17.8259 7.53714 17.3842 7.61719 16.3394C7.66889 15.6645 7.74038 15.3983 7.92767 15.1847C8.12308 14.9619 8.29898 14.8864 8.78223 14.818C9.57041 14.7066 10.0722 14.4953 10.4848 14.1018C10.8425 13.7605 10.9922 13.4314 11.0153 12.9362L11.0327 12.561L10.8327 12.3195C10.1086 11.4452 0.0448561 0 0.000276918 0C-0.00926558 0 0.229012 0.309228 0.529814 0.687221ZM5.27386 23.4279C5.43765 23.1275 5.35049 22.7417 5.0766 22.553C4.81781 22.3749 4.41589 22.4589 4.41589 22.691C4.41589 22.7618 4.45378 22.8134 4.53895 22.8589C4.68265 22.9354 4.69305 23.0214 4.58011 23.1972C4.4656 23.3753 4.47485 23.5318 4.60603 23.6381C4.81753 23.8097 5.11705 23.7153 5.27386 23.4279ZM10.2019 7.05544C9.8789 7.00347 9.86523 6.99733 10.0173 6.97324C10.3086 6.92682 10.9965 6.99003 11.4706 7.10669C12.5774 7.37912 13.5845 8.077 14.6596 9.31625L14.9451 9.64548L15.3537 9.57759C17.0749 9.29114 18.8259 9.51875 20.2905 10.2193C20.6934 10.412 21.3286 10.7957 21.4079 10.8942C21.4332 10.9256 21.4797 11.1278 21.5111 11.3437C21.6199 12.0902 21.5655 12.6626 21.3449 13.0901C21.2249 13.3226 21.2182 13.3964 21.2988 13.5955C21.3632 13.7544 21.5428 13.8719 21.7207 13.8716C22.0846 13.8712 22.4763 13.2619 22.6579 12.4144L22.7299 12.0777L22.8728 12.2452C23.6561 13.1642 24.2716 14.4176 24.3772 15.3097L24.4047 15.5423L24.2731 15.3309C24.0464 14.967 23.8188 14.7193 23.5271 14.5195C23.0015 14.1594 22.4457 14.0369 20.9738 13.9566C19.6444 13.884 18.8921 13.7665 18.1461 13.5145C16.8767 13.086 16.2369 12.5153 14.7291 10.467C14.0594 9.5573 13.6455 9.05374 13.2336 8.64845C12.2981 7.72748 11.3788 7.24437 10.2019 7.05544ZM21.7078 9.08674C21.7412 8.47704 21.8211 8.07496 21.9816 7.70777C22.0452 7.56235 22.1047 7.44351 22.1138 7.44351C22.1231 7.44351 22.0954 7.55067 22.0524 7.68178C21.9358 8.03817 21.9165 8.52566 21.997 9.09272C22.099 9.8125 22.1571 9.91616 22.8916 10.6936C23.2361 11.0582 23.6369 11.5179 23.7822 11.7155L24.0464 12.0743L23.7822 11.8178C23.4592 11.5041 22.7163 10.8922 22.5522 10.8049C22.4421 10.7462 22.4257 10.7472 22.3579 10.8171C22.2954 10.8815 22.2822 10.9785 22.2735 11.4362C22.2599 12.1498 22.1661 12.608 21.9393 13.0658C21.8167 13.3136 21.7973 13.2607 21.9083 12.9811C21.9912 12.7724 21.9996 12.6805 21.999 11.9898C21.9977 10.6018 21.8385 10.2682 20.9052 9.69658C20.6689 9.55175 20.2792 9.34282 20.0395 9.2323C19.8 9.12192 19.6095 9.02571 19.6164 9.01856C19.6429 8.99125 20.5531 9.26632 20.9194 9.41232C21.4643 9.62927 21.5542 9.65745 21.6204 9.63132C21.6647 9.6138 21.6862 9.47992 21.7078 9.08674ZM9.85568 8.02109C9.76781 9.09272 10.1736 10.5262 10.8294 11.4611C11.3379 12.1859 12.1261 12.7491 12.708 12.8035C13.0889 12.8391 13.2034 12.7156 13.0311 12.455C12.7918 12.0932 12.4974 11.536 12.4195 11.2975C12.3711 11.1493 12.2661 10.7116 12.1859 10.3248C11.9123 9.00425 11.6433 8.48989 11.0223 8.09934C10.7958 7.95699 10.3124 7.7707 10.0321 7.7177L9.88289 7.68952L9.85568 8.02109ZM20.9123 18.4195C17.8472 17.1417 16.7676 16.0325 16.7676 14.1611C16.7676 13.8856 16.7768 13.6603 16.788 13.6603C16.7992 13.6603 16.9177 13.7513 17.0514 13.8624C17.673 14.3785 18.369 14.599 20.2959 14.8899C21.4296 15.0613 22.0677 15.1996 22.6563 15.4018C24.5271 16.0442 25.6846 17.3478 25.9606 19.1236C26.0408 19.6396 25.9938 20.6071 25.8637 21.1171C25.761 21.5199 25.4477 22.2458 25.3647 22.2737C25.3416 22.2815 25.3189 22.1901 25.3131 22.0657C25.2816 21.3989 24.9562 20.7498 24.4097 20.2635C23.7883 19.7106 22.9534 19.2705 20.9123 18.4195ZM18.6124 18.2789C18.6554 18.4116 18.7221 18.7137 18.7604 18.9503C19.0059 20.4632 18.239 21.6855 16.7471 22.1591C16.5891 22.2092 15.967 22.3353 15.3646 22.4392C14.145 22.6494 13.6008 22.7983 13.054 23.071C12.6662 23.2645 12.1966 23.5542 12.2245 23.5829C12.2335 23.5923 12.3221 23.5704 12.4212 23.5343C13.1108 23.2836 13.8782 23.1538 15.0441 23.091C15.5068 23.0662 16.0331 23.0265 16.2137 23.003C17.2524 22.8675 17.9724 22.5408 18.5322 21.9508C18.8437 21.6224 19.0294 21.3166 19.1791 20.8853C19.274 20.6117 19.2868 20.5101 19.2875 20.0253C19.2884 19.5314 19.2768 19.441 19.174 19.1372C19.0394 18.7389 18.8806 18.4401 18.6795 18.2063L18.5342 18.0376L18.6124 18.2789ZM20.1656 21.5341C19.7582 20.6276 19.6648 19.7525 19.8878 18.9363C19.9118 18.849 19.9501 18.7776 19.9733 18.7776C19.9964 18.7776 20.0924 18.8315 20.1868 18.8972C20.3744 19.028 20.7508 19.2483 21.7535 19.8144C23.0048 20.5207 23.7182 21.0676 24.2033 21.6927C24.6282 22.2399 24.8911 22.8631 25.0176 23.6232C25.0894 24.0538 25.0473 25.0898 24.9407 25.5233C24.6043 26.8903 23.8223 27.9639 22.7072 28.5906C22.5438 28.6823 22.3971 28.7576 22.3811 28.758C22.3653 28.7583 22.4249 28.6017 22.5135 28.4097C22.8886 27.5976 22.9313 26.8078 22.6478 25.9287C22.474 25.3904 22.1199 24.7335 21.405 23.6234C20.5738 22.3327 20.37 21.9892 20.1656 21.5341ZM12.4945 24.5072C11.2056 24.7241 9.79017 25.4304 8.65276 26.4248L8.31422 26.7209L8.61188 26.7691C10.1647 27.02 10.5831 27.2427 11.6602 28.3917C12.28 29.0528 12.4894 29.2 13.0037 29.3359C13.7589 29.5355 14.5033 29.1687 14.7587 28.4711C14.8728 28.1594 14.8575 27.6433 14.7266 27.3842C14.4153 26.767 13.5082 26.5676 13.0697 27.0196C12.7042 27.3961 12.8107 27.9634 13.2651 28.0609C13.369 28.0834 13.3662 28.0785 13.2386 28.0188C13.0397 27.9257 12.9533 27.7966 12.9523 27.5912C12.9497 27.1095 13.4821 26.8392 13.9772 27.0704C14.3398 27.2399 14.4838 27.4613 14.4838 27.8493C14.4838 28.4469 13.9926 28.8972 13.421 28.8236C13.1154 28.7842 12.7417 28.5818 12.5414 28.3473C12.0372 27.7571 12.2336 26.8256 12.9375 26.4682C13.4734 26.1962 14.1858 26.2632 14.7382 26.6377C15.3728 27.0681 15.6427 27.4614 16.1893 28.7523C16.3674 29.1727 16.5964 29.6459 16.6982 29.8038C17.2161 30.6064 17.8365 31 18.5838 31C18.996 31 19.306 30.922 19.6961 30.7204C19.986 30.5705 20.3969 30.2856 20.3672 30.2551C20.3588 30.2465 20.2386 30.2852 20.1001 30.3411C19.2841 30.6706 18.4546 30.648 17.9729 30.2829C17.6696 30.053 17.4249 29.5952 17.2991 29.0226C17.2773 28.9234 17.2055 28.4857 17.1395 28.0498C16.972 26.9449 16.8112 26.4482 16.4362 25.8782C16.0525 25.2951 15.3148 24.8057 14.4902 24.5871C13.9758 24.4507 13.0503 24.4137 12.4945 24.5072ZM10.6892 15.9644C10.8004 15.5386 11.16 15.1326 11.53 15.0149C11.7653 14.9402 12.2516 14.9879 12.4803 15.1082C12.9232 15.3415 13.2451 15.8728 13.1753 16.2564C13.09 16.724 12.3577 17.0982 11.5151 17.1043C11.0847 17.1074 10.9259 17.0475 10.7615 16.8203C10.6597 16.6796 10.6212 16.2241 10.6892 15.9644ZM12.3671 15.2749C12.5881 15.4147 12.6448 15.6213 12.5151 15.8124C12.4255 15.9441 12.1484 16.0692 11.9459 16.0692C11.6417 16.0692 11.3098 15.8455 11.3098 15.6407C11.3098 15.2291 11.9463 15.0088 12.3671 15.2749Z" fill="url(#paint0_linear_31_630)"/>
<defs>
<linearGradient id="paint0_linear_31_630" x1="2.45781" y1="-1.17587" x2="33.3194" y2="0.570862" gradientUnits="userSpaceOnUse">
<stop stop-color="white"/>
<stop offset="1" stop-color="#8978F1"/>
</linearGradient>
</defs>
</svg>
