<svg width="27" height="26" viewBox="0 0 27 26" fill="none" xmlns="http://www.w3.org/2000/svg">
<g clip-path="url(#clip0_30_625)">
<path d="M20.6902 15.0384C20.6902 12.4286 20.6921 10.013 20.6895 7.59753C20.6881 6.19045 20.575 6.08037 19.1677 6.07549C19.0134 6.07503 18.8581 6.08664 18.7046 6.07363C17.1951 5.9466 16.938 6.39783 16.9663 7.74662C17.0224 10.4138 16.9315 13.0844 17.0064 15.7507C17.0393 16.9267 16.6712 17.5632 15.3609 17.6301C15.3609 15.2818 15.3632 12.9374 15.3599 10.5933C15.3578 9.09333 14.9288 8.64187 13.5104 8.6291C11.8831 8.61447 11.4383 9.01298 11.4265 10.5917C11.4084 13.0278 11.4272 15.4643 11.4153 17.9004C11.4137 18.2321 11.512 18.5748 11.2593 18.8967C10.9531 19.2866 10.5707 19.3651 10.1321 19.3001C9.57901 19.2183 9.81521 18.7634 9.81174 18.4796C9.78856 16.5463 9.75842 14.6114 9.82054 12.6797C9.84442 11.9423 9.51735 11.5578 8.91258 11.4616C8.27489 11.3604 7.59176 11.3527 6.95894 11.47C6.2698 11.5977 6.07833 12.1771 6.08529 12.8545C6.10499 14.7493 6.09061 16.6443 6.09293 18.5391C6.09386 19.1868 6.2348 19.9111 5.43462 20.2111C4.15507 20.6907 2.97589 20.4745 2.3644 19.6821C1.22277 18.2026 0.733433 16.4223 0.569781 14.652C-0.0718481 7.71202 3.7457 2.04049 10.6029 0.374004C14.7086 -0.623658 18.5108 0.401177 21.8203 3.13105C23.5488 4.55671 24.7424 6.32444 25.5625 8.38712C25.9686 9.40846 25.8956 10.2895 25.0762 11.0875C23.7194 12.4093 22.4572 13.8364 20.6902 15.0384Z" fill="url(#paint0_linear_30_625)"/>
<path d="M5.58301 23.378C9.80645 22.6578 13.567 21.6179 17.076 19.8186C20.4863 18.0699 23.4385 15.7429 25.7493 12.6517C25.9067 12.4413 25.9689 12.1043 26.3045 12.2019C26.5912 12.285 26.4772 12.596 26.4763 12.8045C26.4471 19.2942 22.1209 24.8083 15.4731 25.8366C11.9068 26.3884 8.79648 25.5354 5.58301 23.378Z" fill="url(#paint1_linear_30_625)"/>
</g>
<defs>
<linearGradient id="paint0_linear_30_625" x1="2.89195" y1="-0.776231" x2="32.8144" y2="1.72052" gradientUnits="userSpaceOnUse">
<stop stop-color="white"/>
<stop offset="1" stop-color="#8978F1"/>
</linearGradient>
<linearGradient id="paint1_linear_30_625" x1="7.56026" y1="11.6605" x2="32.2099" y2="14.179" gradientUnits="userSpaceOnUse">
<stop stop-color="white"/>
<stop offset="1" stop-color="#8978F1"/>
</linearGradient>
<clipPath id="clip0_30_625">
<rect width="26" height="26" fill="white" transform="translate(0.5)"/>
</clipPath>
</defs>
</svg>
