<svg width="49" height="49" viewBox="0 0 49 49" fill="none" xmlns="http://www.w3.org/2000/svg">
<path d="M24.1958 47.0811C27.1488 47.0849 30.0734 46.5051 32.8016 45.375C35.5298 44.2449 38.0078 42.5868 40.0931 40.496C42.184 38.4106 43.8421 35.9327 44.9722 33.2045C46.1023 30.4763 46.6821 27.5516 46.6782 24.5987C46.682 21.6457 46.1022 18.7211 44.9721 15.9929C43.842 13.2647 42.1839 10.7867 40.0931 8.70133C38.0078 6.6105 35.5298 4.95239 32.8016 3.82229C30.0734 2.6922 27.1488 2.1124 24.1958 2.11623C21.2428 2.11247 18.3182 2.69229 15.59 3.82238C12.8618 4.95247 10.3839 6.61055 8.2985 8.70133C6.20771 10.7867 4.54964 13.2647 3.41955 15.9929C2.28946 18.7211 1.70963 21.6457 1.7134 24.5987C1.70957 27.5516 2.28937 30.4763 3.41946 33.2045C4.54955 35.9327 6.20766 38.4106 8.2985 40.496C10.3839 42.5868 12.8618 44.2448 15.59 45.3749C18.3182 46.505 21.2428 47.0848 24.1958 47.0811Z" stroke="url(#paint0_linear_1107_4838)" stroke-width="2.99766" stroke-linejoin="round"/>
<path d="M15.2029 24.5986L21.9476 31.3433L35.4371 17.8539" stroke="url(#paint1_linear_1107_4838)" stroke-width="2.99766" stroke-linecap="round" stroke-linejoin="round"/>
<defs>
<linearGradient id="paint0_linear_1107_4838" x1="24.1958" y1="2.11621" x2="24.1958" y2="47.0811" gradientUnits="userSpaceOnUse">
<stop stop-color="#FE7EF1" stop-opacity="0.8"/>
<stop offset="1" stop-color="#B1A7B0"/>
</linearGradient>
<linearGradient id="paint1_linear_1107_4838" x1="25.32" y1="17.8539" x2="25.32" y2="31.3433" gradientUnits="userSpaceOnUse">
<stop stop-color="#FE7EF1" stop-opacity="0.8"/>
<stop offset="1" stop-color="#B1A7B0"/>
</linearGradient>
</defs>
</svg>
