<svg width="26" height="26" viewBox="0 0 26 26" fill="none" xmlns="http://www.w3.org/2000/svg">
<path d="M24.2686 1.34679H9.2432C9.1392 1.34419 9.0404 1.38579 8.9676 1.45859L1.4562 8.9674C1.3834 9.0402 1.3418 9.139 1.3418 9.243V24.2658C1.3418 24.4816 1.516 24.6558 1.7318 24.6558H16.7546C16.8586 24.6558 16.9574 24.6142 17.0302 24.5414L24.5416 17.03C24.6144 16.9572 24.656 16.8584 24.656 16.7544V1.73679C24.656 1.52099 24.4818 1.34679 24.266 1.34679H24.2686ZM8.8558 2.67539V8.8556H2.673L8.8532 2.67539H8.8558ZM8.8558 9.6356V16.5958L2.1244 23.3272V9.6356H8.8558ZM16.3672 23.8784H2.673L9.4044 17.147H16.3646V23.8784H16.3672ZM16.3672 16.367H9.6358V9.6356H16.3672V16.367ZM16.596 8.8556H9.6358V2.12419H23.3274L16.596 8.8556ZM17.1472 23.3272V17.147H23.3274L17.1472 23.3272ZM23.8786 16.367H17.1472V9.4068L23.8786 2.67799V16.3644V16.367Z" fill="#917EFE"/>
<path d="M23.9268 1.00012H8.9014C8.7974 0.997515 8.6986 1.03912 8.6258 1.11192L1.1144 8.62072C1.0416 8.69352 1 8.79232 1 8.89632V23.9191C1 24.1349 1.1742 24.3091 1.39 24.3091H16.4128C16.5168 24.3091 16.6156 24.2675 16.6884 24.1947L24.1998 16.6833C24.2726 16.6105 24.3142 16.5117 24.3142 16.4077V1.39012C24.3142 1.17432 24.14 1.00012 23.9242 1.00012H23.9268ZM8.514 2.32872V8.50892H2.3312L8.5114 2.32872H8.514ZM8.514 9.28892V16.2491L1.7826 22.9805V9.28892H8.514ZM16.0254 23.5317H2.3312L9.0626 16.8003H16.0228V23.5317H16.0254ZM16.0254 16.0203H9.294V9.28892H16.0254V16.0203ZM16.2542 8.50892H9.294V1.77752H22.9856L16.2542 8.50892ZM16.8054 22.9805V16.8003H22.9856L16.8054 22.9805ZM23.5368 16.0203H16.8054V9.06012L23.5368 2.33132V16.0177V16.0203Z" fill="#917EFE"/>
</svg>
