<svg width="165" height="21" viewBox="0 0 165 21" fill="none" xmlns="http://www.w3.org/2000/svg">
<g clip-path="url(#clip0_1355_4914)">
<path d="M0.30957 8.24086C0.30957 4.04073 3.82901 0.637168 8.02917 0.637168C10.3465 0.637168 11.9976 1.54961 13.2432 2.73724L11.7659 4.20004C10.8824 3.36002 9.68027 2.70827 8.02917 2.70827C4.9732 2.70827 2.58345 5.17042 2.58345 8.22638C2.58345 11.2823 4.9732 13.7445 8.02917 13.7445C10.0134 13.7445 11.1431 12.9479 11.8673 12.2238C12.4611 11.6299 12.8521 10.7754 12.9969 9.61677H8.02917V7.54567H15.0246C15.097 7.92223 15.1405 8.35673 15.1405 8.84916C15.1405 10.4133 14.7205 12.3396 13.3445 13.701C11.9976 15.0914 10.2886 15.8301 8.02917 15.8301C3.82901 15.8301 0.30957 12.4265 0.30957 8.24086Z" fill="#4285F4"/>
<path d="M20.7741 6.05406C18.0657 6.05406 15.8643 8.11068 15.8643 10.9494C15.8643 13.7736 18.0657 15.8447 20.7741 15.8447C23.4825 15.8447 25.6839 13.7736 25.6839 10.9494C25.6839 8.11068 23.4825 6.05406 20.7741 6.05406ZM20.7741 13.904C19.2968 13.904 18.0078 12.6874 18.0078 10.9349C18.0078 9.16796 19.2823 7.96585 20.7741 7.96585C22.2514 7.96585 23.5404 9.16796 23.5404 10.9349C23.5404 12.6874 22.2514 13.904 20.7741 13.904Z" fill="#EA4335"/>
<path d="M31.4919 6.05406C28.7835 6.05406 26.582 8.11068 26.582 10.9494C26.582 13.7736 28.7835 15.8447 31.4919 15.8447C34.2003 15.8447 36.4017 13.7736 36.4017 10.9494C36.4017 8.11068 34.2003 6.05406 31.4919 6.05406ZM31.4919 13.904C30.0146 13.904 28.7256 12.6874 28.7256 10.9349C28.7256 9.16796 30.0001 7.96585 31.4919 7.96585C32.9837 7.96585 34.2582 9.16796 34.2582 10.9349C34.2582 12.6874 32.9692 13.904 31.4919 13.904Z" fill="#FBBC05"/>
<path d="M44.6428 6.34398V7.14056H44.5704C44.0925 6.56123 43.1655 6.03983 41.9924 6.03983C39.5447 6.03983 37.2998 8.18335 37.2998 10.9496C37.2998 13.687 39.5447 15.8305 41.9924 15.8305C43.1655 15.8305 44.0925 15.3091 44.5704 14.7153H44.6428V15.425C44.6428 17.2933 43.6435 18.2926 42.0358 18.2926C40.7179 18.2926 39.9068 17.3512 39.5737 16.5547L37.7053 17.3368C38.2412 18.6402 39.6751 20.2334 42.0503 20.2334C44.5704 20.2334 46.6995 18.7561 46.6995 15.1353V6.34398H44.6428ZM42.1807 13.9042C40.7034 13.9042 39.4578 12.6587 39.4578 10.9496C39.4578 9.22614 40.7034 7.9661 42.1807 7.9661C43.6435 7.9661 44.7877 9.22614 44.7877 10.9496C44.8022 12.6732 43.6435 13.9042 42.1807 13.9042Z" fill="#4285F4"/>
<path d="M50.3203 15.5405H48.1768V1.15868H50.3203V15.5405Z" fill="#34A853"/>
<path d="M56.2152 13.904C55.1145 13.904 54.3468 13.3971 53.8399 12.4267L60.3864 9.71832L60.1691 9.16796C59.7636 8.06723 58.518 6.05406 55.9835 6.05406C53.4634 6.05406 51.3633 8.03826 51.3633 10.9494C51.3633 13.6867 53.4344 15.8447 56.2152 15.8447C58.4601 15.8447 59.7491 14.4688 60.2995 13.6722L58.6339 12.557C58.069 13.3681 57.3159 13.904 56.2152 13.904ZM56.0559 7.93688C56.9104 7.93688 57.6346 8.3569 57.8663 8.97967L53.4923 10.7901C53.4344 8.90726 54.9551 7.93688 56.0559 7.93688Z" fill="#EA4335"/>
</g>
<path d="M73.0941 2.0542C73.7218 2.0542 74.2366 2.16091 74.6383 2.37434L74.1675 3.89976C73.8662 3.7491 73.5272 3.67377 73.1506 3.67377C72.7237 3.67377 72.3722 3.82443 72.096 4.12575C71.8323 4.41451 71.7005 4.8037 71.7005 5.29334V6.46095H74.111V8.04286H71.7005V15.6888H69.9679V8.04286H68.2354V6.46095H69.9679V5.12386C69.9679 4.20735 70.2567 3.46661 70.8342 2.90165C71.4243 2.33668 72.1776 2.0542 73.0941 2.0542Z" fill="white"/>
<path d="M74.6738 11.0749C74.6738 9.65619 75.1195 8.48231 76.0109 7.55326C76.9149 6.6242 78.0511 6.15967 79.4196 6.15967C80.788 6.15967 81.918 6.6242 82.8094 7.55326C83.7133 8.48231 84.1653 9.65619 84.1653 11.0749C84.1653 12.5061 83.7133 13.68 82.8094 14.5965C81.918 15.5256 80.788 15.9901 79.4196 15.9901C78.0511 15.9901 76.9149 15.5256 76.0109 14.5965C75.1195 13.6675 74.6738 12.4936 74.6738 11.0749ZM76.4064 11.0749C76.4064 12.0667 76.6952 12.8702 77.2727 13.4854C77.8502 14.1006 78.5658 14.4082 79.4196 14.4082C80.2733 14.4082 80.9889 14.1006 81.5664 13.4854C82.144 12.8702 82.4327 12.0667 82.4327 11.0749C82.4327 10.0956 82.144 9.29838 81.5664 8.68319C80.9764 8.05545 80.2607 7.74158 79.4196 7.74158C78.5784 7.74158 77.8628 8.05545 77.2727 8.68319C76.6952 9.29838 76.4064 10.0956 76.4064 11.0749Z" fill="white"/>
<path d="M87.3058 15.6887H85.5732V6.46092H87.2305V7.9675H87.3058C87.4816 7.47786 87.8394 7.06355 88.3792 6.72457C88.9317 6.37303 89.4715 6.19727 89.9988 6.19727C90.501 6.19727 90.9279 6.27259 91.2794 6.42325L90.7521 8.09932C90.5387 8.01144 90.1997 7.9675 89.7352 7.9675C89.0823 7.9675 88.5111 8.23115 88.0214 8.75845C87.5444 9.28575 87.3058 9.90094 87.3058 10.604V15.6887Z" fill="white"/>
<path d="M104.645 12.0921C104.645 13.2722 104.212 14.2201 103.345 14.9357C102.467 15.6388 101.399 15.9903 100.144 15.9903C99.0265 15.9903 98.041 15.6639 97.1872 15.0111C96.3335 14.3582 95.7434 13.4668 95.417 12.3369L97.0742 11.6589C97.1872 12.0607 97.3442 12.4248 97.545 12.7512C97.7459 13.0776 97.9782 13.3601 98.2418 13.5986C98.518 13.8246 98.8194 14.0067 99.1458 14.1448C99.4722 14.2703 99.8175 14.3331 100.182 14.3331C100.973 14.3331 101.619 14.1322 102.121 13.7305C102.623 13.3162 102.875 12.77 102.875 12.0921C102.875 11.5271 102.667 11.0437 102.253 10.642C101.864 10.2528 101.136 9.87614 100.069 9.51204C98.9888 9.12284 98.3172 8.85919 98.0535 8.72109C96.6223 7.99291 95.9066 6.91947 95.9066 5.50077C95.9066 4.50894 96.3021 3.66149 97.0931 2.95842C97.8966 2.25535 98.8821 1.90381 100.05 1.90381C101.079 1.90381 101.971 2.16746 102.724 2.69477C103.477 3.20952 103.979 3.85609 104.23 4.63449L102.611 5.31245C102.46 4.81025 102.159 4.39594 101.707 4.06952C101.268 3.73054 100.728 3.56105 100.087 3.56105C99.4094 3.56105 98.8382 3.74937 98.3737 4.12602C97.9091 4.47755 97.6769 4.9358 97.6769 5.50077C97.6769 5.9653 97.8589 6.36705 98.223 6.70603C98.6248 7.04502 99.4973 7.44677 100.841 7.9113C102.209 8.37583 103.182 8.94708 103.76 9.62504C104.35 10.2904 104.645 11.1128 104.645 12.0921Z" fill="white"/>
<path d="M109.605 15.84C108.851 15.84 108.224 15.6078 107.721 15.1432C107.232 14.6787 106.981 14.0321 106.968 13.2035V8.04347H105.349V6.46156H106.968V3.63672H108.701V6.46156H110.961V8.04347H108.701V12.6385C108.701 13.2537 108.82 13.6743 109.059 13.9003C109.297 14.1137 109.567 14.2204 109.868 14.2204C110.006 14.2204 110.138 14.2079 110.264 14.1828C110.402 14.1451 110.528 14.1012 110.64 14.051L111.187 15.5952C110.735 15.7584 110.207 15.84 109.605 15.84Z" fill="white"/>
<path d="M113.686 12.864C113.686 13.3159 113.874 13.6926 114.251 13.9939C114.64 14.2952 115.092 14.4459 115.606 14.4459C116.335 14.4459 116.981 14.1759 117.546 13.6361C118.124 13.0962 118.412 12.4622 118.412 11.734C117.873 11.3072 117.119 11.0937 116.153 11.0937C115.45 11.0937 114.859 11.2632 114.382 11.6022C113.918 11.9412 113.686 12.3618 113.686 12.864ZM115.927 6.15967C117.207 6.15967 118.218 6.50492 118.959 7.19544C119.699 7.8734 120.07 8.80874 120.07 10.0014V15.6888H118.412V14.4082H118.337C117.621 15.4628 116.667 15.9901 115.475 15.9901C114.458 15.9901 113.604 15.6888 112.913 15.0862C112.235 14.4835 111.896 13.7302 111.896 12.8263C111.896 11.8721 112.254 11.1126 112.97 10.5476C113.698 9.98262 114.665 9.70013 115.87 9.70013C116.9 9.70013 117.747 9.88846 118.412 10.2651V9.86962C118.412 9.26699 118.174 8.75852 117.697 8.34421C117.22 7.91735 116.661 7.70391 116.021 7.70391C115.054 7.70391 114.288 8.11194 113.723 8.92801L112.198 7.96756C113.039 6.7623 114.282 6.15967 115.927 6.15967Z" fill="white"/>
<path d="M132.834 15.84C132.081 15.84 131.453 15.6078 130.951 15.1432C130.461 14.6787 130.21 14.0321 130.198 13.2035V8.04347H128.578V6.46156H130.198V3.63672H131.93V6.46156H134.19V8.04347H131.93V12.6385C131.93 13.2537 132.049 13.6743 132.288 13.9003C132.527 14.1137 132.796 14.2204 133.098 14.2204C133.236 14.2204 133.368 14.2079 133.493 14.1828C133.631 14.1451 133.757 14.1012 133.87 14.051L134.416 15.5952C133.964 15.7584 133.437 15.84 132.834 15.84ZM122.024 6.46156H123.682V7.96813H123.757C124.272 6.78798 125.333 6.1979 126.94 6.1979L127.297 6.23557V8.04347L126.525 7.96813C125.722 7.96813 125.056 8.21923 124.529 8.72143C124.014 9.21107 123.757 9.83881 123.757 10.6047V15.6894H122.024V6.46156Z" fill="white"/>
<path d="M143.952 15.6887H142.295V14.4082H142.22C141.956 14.8601 141.548 15.2368 140.996 15.5381C140.456 15.8394 139.891 15.9901 139.301 15.9901C138.171 15.9901 137.298 15.6699 136.683 15.0296C136.081 14.3768 135.779 13.454 135.779 12.2613V6.46094H137.512V12.1483C137.55 13.6549 138.309 14.4082 139.791 14.4082C140.481 14.4082 141.059 14.1319 141.523 13.5795C141.988 13.0146 142.22 12.3429 142.22 11.5645V6.46094H143.952V15.6887Z" fill="white"/>
<path d="M150.6 14.4082C151.429 14.4082 152.125 14.0943 152.69 13.4666C153.255 12.8514 153.538 12.0542 153.538 11.0749C153.538 10.1082 153.255 9.31093 152.69 8.68319C152.125 8.05545 151.429 7.74158 150.6 7.74158C149.759 7.74158 149.056 8.05545 148.491 8.68319C147.938 9.31093 147.662 10.1082 147.662 11.0749C147.662 12.0542 147.938 12.8577 148.491 13.4854C149.056 14.1006 149.759 14.4082 150.6 14.4082ZM150.882 15.9901C150.204 15.9901 149.583 15.8457 149.018 15.557C148.466 15.2682 148.039 14.8853 147.737 14.4082H147.662L147.737 15.6888V19.7566H146.005V6.46098H147.662V7.74158H147.737C148.039 7.26449 148.466 6.88157 149.018 6.59281C149.583 6.30405 150.204 6.15967 150.882 6.15967C152.1 6.15967 153.13 6.63675 153.971 7.59092C154.837 8.55764 155.27 9.71897 155.27 11.0749C155.27 12.4434 154.837 13.6047 153.971 14.5589C153.13 15.513 152.1 15.9901 150.882 15.9901Z" fill="white"/>
<path d="M163.808 13.1276C163.808 13.9311 163.457 14.6091 162.754 15.1615C162.051 15.7139 161.165 15.9901 160.098 15.9901C159.169 15.9901 158.353 15.7516 157.65 15.2745C156.947 14.7848 156.445 14.1445 156.144 13.3536L157.688 12.6945C157.914 13.2469 158.24 13.68 158.667 13.9939C159.106 14.2952 159.584 14.4459 160.098 14.4459C160.651 14.4459 161.109 14.3266 161.473 14.088C161.85 13.8495 162.038 13.567 162.038 13.2406C162.038 12.6505 161.586 12.2174 160.682 11.9412L159.1 11.5457C157.305 11.0937 156.407 10.2274 156.407 8.94684C156.407 8.10567 156.746 7.43398 157.424 6.93179C158.115 6.41704 158.994 6.15967 160.061 6.15967C160.877 6.15967 161.611 6.35427 162.264 6.74347C162.929 7.13267 163.394 7.65369 163.658 8.30655L162.113 8.94684C161.938 8.55764 161.649 8.25633 161.247 8.04289C160.858 7.81691 160.418 7.70391 159.929 7.70391C159.477 7.70391 159.069 7.81691 158.705 8.04289C158.353 8.26888 158.177 8.54509 158.177 8.87152C158.177 9.39882 158.673 9.77546 159.665 10.0014L161.059 10.3593C162.892 10.8112 163.808 11.734 163.808 13.1276Z" fill="white"/>
<defs>
<clipPath id="clip0_1355_4914">
<rect width="165" height="20.835" fill="white"/>
</clipPath>
</defs>
</svg>
