<svg width="39" height="39" viewBox="0 0 39 39" fill="none" xmlns="http://www.w3.org/2000/svg">
<rect x="0.573242" y="0.487793" width="38" height="38" rx="13.0263" fill="#3A3A44" fill-opacity="0.4"/>
<path d="M17.8232 22.1128L22.3645 19.4878L17.8232 16.8628V22.1128ZM27.9382 15.2615C28.052 15.6728 28.1307 16.224 28.1832 16.924C28.2445 17.624 28.2707 18.2278 28.2707 18.7528L28.3232 19.4878C28.3232 21.404 28.1832 22.8128 27.9382 23.714C27.7195 24.5015 27.212 25.009 26.4245 25.2278C26.0132 25.3415 25.2607 25.4203 24.1057 25.4728C22.9682 25.534 21.927 25.5603 20.9645 25.5603L19.5732 25.6128C15.907 25.6128 13.6232 25.4728 12.722 25.2278C11.9345 25.009 11.427 24.5015 11.2082 23.714C11.0945 23.3028 11.0157 22.7515 10.9632 22.0515C10.902 21.3515 10.8757 20.7478 10.8757 20.2228L10.8232 19.4878C10.8232 17.5715 10.9632 16.1628 11.2082 15.2615C11.427 14.474 11.9345 13.9665 12.722 13.7478C13.1332 13.634 13.8857 13.5553 15.0407 13.5028C16.1782 13.4415 17.2195 13.4153 18.182 13.4153L19.5732 13.3628C23.2395 13.3628 25.5232 13.5028 26.4245 13.7478C27.212 13.9665 27.7195 14.474 27.9382 15.2615Z" fill="white"/>
</svg>
