<svg width="182" height="54" viewBox="0 0 182 54" fill="none" xmlns="http://www.w3.org/2000/svg">
<path d="M70.3566 32.3582C69.3393 32.3582 68.4253 32.1813 67.6144 31.8274C66.8183 31.4589 66.1918 30.9576 65.7348 30.3237C65.2777 29.675 65.0419 28.9305 65.0271 28.0902H67.1722C67.2459 28.8126 67.5407 29.4244 68.0567 29.9256C68.5874 30.4121 69.3541 30.6554 70.3566 30.6554C71.3148 30.6554 72.0667 30.4195 72.6122 29.9478C73.1724 29.4613 73.4525 28.8421 73.4525 28.0902C73.4525 27.5005 73.2903 27.0214 72.966 26.6528C72.6416 26.2842 72.2362 26.0041 71.7497 25.8125C71.2632 25.6208 70.6072 25.4144 69.7816 25.1933C68.7644 24.9279 67.9461 24.6626 67.327 24.3972C66.7225 24.1318 66.1992 23.719 65.7569 23.1588C65.3293 22.5839 65.1156 21.8172 65.1156 20.859C65.1156 20.0187 65.3293 19.2742 65.7569 18.6255C66.1844 17.9768 66.7815 17.4756 67.5481 17.1217C68.3295 16.7679 69.2214 16.591 70.2239 16.591C71.6686 16.591 72.848 16.9522 73.7621 17.6746C74.6909 18.397 75.2142 19.3552 75.3322 20.5494H73.1208C73.0471 19.9597 72.7375 19.4437 72.192 19.0014C71.6465 18.5444 70.9241 18.3159 70.0248 18.3159C69.1845 18.3159 68.499 18.537 67.9683 18.9793C67.4375 19.4068 67.1722 20.0113 67.1722 20.7926C67.1722 21.3529 67.327 21.8099 67.6366 22.1637C67.9609 22.5175 68.3516 22.7903 68.8086 22.9819C69.2803 23.1588 69.9364 23.3652 70.7767 23.6011C71.7939 23.8812 72.6122 24.1613 73.2313 24.4414C73.8505 24.7068 74.3813 25.1269 74.8235 25.7019C75.2658 26.2621 75.487 27.0287 75.487 28.0017C75.487 28.7536 75.2879 29.4613 74.8899 30.1247C74.4918 30.7881 73.9021 31.3262 73.1208 31.739C72.3394 32.1518 71.418 32.3582 70.3566 32.3582ZM80.4607 22.3185C80.8587 21.6256 81.4484 21.0506 82.2298 20.5936C83.0259 20.1219 83.9473 19.886 84.994 19.886C86.0702 19.886 87.0432 20.144 87.913 20.66C88.7976 21.1759 89.4905 21.9057 89.9917 22.8492C90.493 23.778 90.7436 24.8616 90.7436 26.1C90.7436 27.3236 90.493 28.4145 89.9917 29.3728C89.4905 30.3311 88.7976 31.0756 87.913 31.6063C87.0432 32.137 86.0702 32.4024 84.994 32.4024C83.962 32.4024 83.048 32.1739 82.2519 31.7169C81.4705 31.2451 80.8735 30.6628 80.4607 29.9699V37.953H78.4483V20.085H80.4607V22.3185ZM88.687 26.1C88.687 25.1859 88.5027 24.3898 88.1342 23.7117C87.7656 23.0335 87.2644 22.5175 86.6304 22.1637C86.0112 21.8099 85.3257 21.633 84.5738 21.633C83.8367 21.633 83.1512 21.8172 82.5173 22.1858C81.8981 22.5396 81.3968 23.063 81.0135 23.7559C80.6449 24.434 80.4607 25.2228 80.4607 26.1221C80.4607 27.0361 80.6449 27.8396 81.0135 28.5325C81.3968 29.2106 81.8981 29.734 82.5173 30.1026C83.1512 30.4564 83.8367 30.6333 84.5738 30.6333C85.3257 30.6333 86.0112 30.4564 86.6304 30.1026C87.2644 29.734 87.7656 29.2106 88.1342 28.5325C88.5027 27.8396 88.687 27.0287 88.687 26.1ZM104.449 25.6798C104.449 26.0631 104.427 26.4685 104.383 26.8961H94.6971C94.7708 28.0902 95.1763 29.0264 95.9134 29.7045C96.6653 30.3679 97.5719 30.6996 98.6334 30.6996C99.5032 30.6996 100.226 30.5006 100.801 30.1026C101.39 29.6898 101.803 29.1443 102.039 28.4661H104.206C103.882 29.6308 103.233 30.5817 102.26 31.3188C101.287 32.0412 100.078 32.4024 98.6334 32.4024C97.4835 32.4024 96.4515 32.1444 95.5375 31.6284C94.6382 31.1124 93.9305 30.3827 93.4145 29.4391C92.8985 28.4809 92.6405 27.3752 92.6405 26.1221C92.6405 24.869 92.8912 23.7706 93.3924 22.8271C93.8937 21.8836 94.5939 21.1612 95.4932 20.66C96.4073 20.144 97.454 19.886 98.6334 19.886C99.7833 19.886 100.801 20.1366 101.685 20.6378C102.57 21.1391 103.248 21.832 103.72 22.7165C104.206 23.5863 104.449 24.5741 104.449 25.6798ZM102.371 25.2596C102.371 24.493 102.201 23.837 101.862 23.2915C101.523 22.7313 101.059 22.3111 100.469 22.031C99.8939 21.7362 99.2526 21.5887 98.5449 21.5887C97.5277 21.5887 96.6579 21.9131 95.9355 22.5617C95.2279 23.2104 94.8224 24.1097 94.7192 25.2596H102.371ZM106.354 26.1221C106.354 24.869 106.604 23.778 107.106 22.8492C107.607 21.9057 108.3 21.1759 109.184 20.66C110.084 20.144 111.108 19.886 112.258 19.886C113.747 19.886 114.971 20.2472 115.929 20.9695C116.902 21.6919 117.543 22.6944 117.853 23.977H115.686C115.479 23.2399 115.074 22.6576 114.469 22.23C113.88 21.8025 113.143 21.5887 112.258 21.5887C111.108 21.5887 110.179 21.9868 109.472 22.7829C108.764 23.5642 108.41 24.6773 108.41 26.1221C108.41 27.5816 108.764 28.7094 109.472 29.5055C110.179 30.3016 111.108 30.6996 112.258 30.6996C113.143 30.6996 113.88 30.4932 114.469 30.0804C115.059 29.6677 115.465 29.0779 115.686 28.3113H117.853C117.529 29.5497 116.88 30.5448 115.907 31.2967C114.934 32.0338 113.718 32.4024 112.258 32.4024C111.108 32.4024 110.084 32.1444 109.184 31.6284C108.3 31.1124 107.607 30.3827 107.106 29.4391C106.604 28.4956 106.354 27.3899 106.354 26.1221ZM122.993 21.7435V28.8863C122.993 29.476 123.118 29.8962 123.369 30.1468C123.619 30.3827 124.054 30.5006 124.673 30.5006H126.155V32.2034H124.342C123.221 32.2034 122.381 31.9454 121.821 31.4294C121.26 30.9134 120.98 30.0657 120.98 28.8863V21.7435H119.41V20.085H120.98V17.0333H122.993V20.085H126.155V21.7435H122.993ZM130.605 22.0531C130.959 21.3602 131.461 20.8221 132.109 20.4388C132.773 20.0555 133.576 19.8639 134.52 19.8639V21.9426H133.989C131.733 21.9426 130.605 23.1662 130.605 25.6135V32.2034H128.593V20.085H130.605V22.0531ZM147.9 25.6798C147.9 26.0631 147.877 26.4685 147.833 26.8961H138.147C138.221 28.0902 138.626 29.0264 139.364 29.7045C140.115 30.3679 141.022 30.6996 142.084 30.6996C142.953 30.6996 143.676 30.5006 144.251 30.1026C144.84 29.6898 145.253 29.1443 145.489 28.4661H147.656C147.332 29.6308 146.683 30.5817 145.71 31.3188C144.737 32.0412 143.528 32.4024 142.084 32.4024C140.934 32.4024 139.902 32.1444 138.988 31.6284C138.088 31.1124 137.381 30.3827 136.865 29.4391C136.349 28.4809 136.091 27.3752 136.091 26.1221C136.091 24.869 136.341 23.7706 136.843 22.8271C137.344 21.8836 138.044 21.1612 138.943 20.66C139.857 20.144 140.904 19.886 142.084 19.886C143.234 19.886 144.251 20.1366 145.135 20.6378C146.02 21.1391 146.698 21.832 147.17 22.7165C147.656 23.5863 147.9 24.5741 147.9 25.6798ZM145.821 25.2596C145.821 24.493 145.651 23.837 145.312 23.2915C144.973 22.7313 144.509 22.3111 143.919 22.031C143.344 21.7362 142.703 21.5887 141.995 21.5887C140.978 21.5887 140.108 21.9131 139.386 22.5617C138.678 23.2104 138.273 24.1097 138.169 25.2596H145.821ZM165.562 28.7757H158.84L157.601 32.2034H155.478L161.051 16.8785H163.373L168.924 32.2034H166.801L165.562 28.7757ZM164.987 27.1393L162.201 19.3552L159.415 27.1393H164.987ZM173.365 16.79V32.2034H171.352V16.79H173.365Z" fill="url(#paint0_linear_6_945)"/>
<circle cx="26.4496" cy="26.2602" r="25.945" fill="#1D1C25" stroke="url(#paint1_linear_6_945)" stroke-width="0.630244"/>
<path d="M21.5522 36.7824C20.6954 35.3045 19.5416 34.0929 18.1529 33.0029C19.733 33.2221 21.6671 35.3728 21.5522 36.7824ZM30.597 36.8159C31.4469 35.3247 32.6093 34.1095 33.9307 33.0347C32.3205 33.3348 30.5683 35.3186 30.597 36.8159ZM34.2036 19.4838C33.5957 18.4811 33.1974 17.5033 32.9158 16.354C32.4252 17.3546 33.2799 19.2159 34.2036 19.4838ZM19.7837 16.451C19.3884 17.4189 18.9658 18.4538 18.5565 19.4558C19.5578 18.9788 20.1322 17.3803 19.7837 16.451ZM37.6315 25.8787C37.2879 31.6544 29.7512 32.5621 29.9523 37.8192C29.1908 37.1416 28.961 36.1738 29.2466 35.1975C29.2299 35.1915 29.2131 35.1856 29.1964 35.1797C28.6255 36.3153 28.3066 37.6742 28.4842 38.9596C28.551 39.2695 28.3789 39.1463 28.239 38.9947L28.243 38.9996C27.939 38.4264 27.6953 37.754 27.6777 37.094C27.6536 37.0934 27.6294 37.0929 27.6052 37.0922C27.1199 38.5896 26.9802 40.2368 26.2926 41.6444C25.9171 40.3301 25.4743 39.0021 25.2281 37.6655C25.171 37.4629 25.0032 36.9886 24.9882 36.9904C24.9729 36.9924 24.9399 37.4539 24.927 37.6463C24.9759 38.3274 24.5718 38.8045 24.2457 39.2748C24.1011 38.2464 24.1411 37.1483 23.8902 36.1425L23.8933 36.1509C23.8428 36.0866 23.6168 35.6439 23.5597 35.5105C23.6243 36.3687 23.377 37.193 22.7476 37.8574C22.9415 33.8498 18.5346 32.4033 16.5266 29.5827C14.3876 26.6316 14.0647 21.6528 17.2899 19.3298C16.1044 21.1729 16.5607 23.3452 17.6359 25.1122C17.6859 25.1723 17.8737 25.3921 17.8816 25.1998C17.3184 23.9241 17.5133 22.5113 18.261 21.3465C20.1624 19.5581 20.7448 17.1235 21.1313 14.5373C22.6235 16.7635 21.9108 19.5647 20.6488 21.671C20.6504 21.6689 20.6515 21.6667 20.653 21.6647C20.619 21.7133 20.6078 21.778 20.5509 21.8084C24.1071 19.8665 25.1471 14.7305 26.3274 11.0293C27.3448 14.3794 28.1831 17.7792 30.4669 20.5494C30.9931 21.0379 31.5709 21.4605 32.1136 21.8961C30.8972 19.7208 30.1534 16.9956 31.3944 14.6126C31.4476 14.6198 31.501 14.6271 31.5543 14.6344C31.9666 16.867 32.306 19.4043 34.1035 20.9605C35.0295 22.1031 35.2861 23.5926 34.8733 25.002C34.8315 25.0784 34.8617 25.1641 34.8403 25.2439C34.8982 25.2893 34.9541 25.123 35.0118 25.1454C36.1549 23.382 36.4657 21.1808 35.4115 19.3101C37.4364 20.8167 38.0722 23.498 37.6318 25.8785L37.6315 25.8787ZM28.5312 29.3272C28.4681 29.3955 28.4547 29.5098 28.418 29.6026C30.0766 29.6065 31.9625 28.7168 32.7473 27.2125C33.028 26.5925 33.4226 25.7533 33.1599 25.0819C31.3738 26.2314 29.9352 27.7501 28.5311 29.3271L28.5312 29.3272ZM23.0336 22.6742C23.0534 22.7 23.0732 22.7255 23.0928 22.7512C24.5926 21.9395 25.5094 20.5684 26.3276 19.1354C27.1673 20.5396 28.0288 21.9163 29.5373 22.7116C29.5548 22.6862 29.5724 22.6609 29.59 22.6355C27.8976 21.1731 27.1635 19.0268 26.3241 17.0112C25.6053 19.0948 24.7467 21.1878 23.0335 22.6744L23.0336 22.6742ZM20.1055 27.5203C21.2533 29.1936 23.4035 29.7016 24.3661 29.5944C22.9358 27.8686 21.385 26.1629 19.4069 25.0925C19.3482 25.7549 19.4914 26.2449 20.1055 27.5203ZM34.4451 26.948C34.4186 26.9381 34.3921 26.9281 34.3656 26.9182C31.6624 32.9156 27.6034 30.6402 26.2913 34.9828C24.3866 30.433 20.4083 32.543 18.1795 26.9229C18.1428 26.9369 18.1061 26.951 18.0693 26.9651C19.9406 33.912 25.1241 30.128 26.2243 37.2622C26.2537 37.2632 26.283 37.2641 26.3124 37.2649C26.3336 37.0438 26.3547 36.8226 26.3759 36.6017C27.4053 30.4328 32.5168 33.8752 34.4453 26.9478L34.4451 26.948Z" fill="url(#paint2_linear_6_945)"/>
<defs>
<linearGradient id="paint0_linear_6_945" x1="193.685" y1="15.2034" x2="74.8235" y2="27.6424" gradientUnits="userSpaceOnUse">
<stop stop-color="#917EFE"/>
<stop offset="1" stop-color="white"/>
</linearGradient>
<linearGradient id="paint1_linear_6_945" x1="3.99712" y1="-1.02141e-07" x2="57.8944" y2="36.8872" gradientUnits="userSpaceOnUse">
<stop stop-color="#917EFE"/>
<stop offset="1" stop-color="white"/>
</linearGradient>
<linearGradient id="paint2_linear_6_945" x1="26.3288" y1="11.0293" x2="26.3427" y2="36.3441" gradientUnits="userSpaceOnUse">
<stop stop-color="#917EFE"/>
<stop offset="1" stop-color="white"/>
</linearGradient>
</defs>
</svg>
