<svg width="31" height="31" viewBox="0 0 31 31" fill="none" xmlns="http://www.w3.org/2000/svg">
<rect x="0.488647" y="0.951172" width="30" height="30" rx="10.1291" fill="#3A3A44" fill-opacity="0.4"/>
<path d="M9.29063 15.4852C9.32068 15.4706 9.35074 15.4567 9.38003 15.4435C9.88931 15.2137 10.4053 14.9985 10.9206 14.7833C10.9484 14.7833 10.995 14.7518 11.0213 14.7415C11.0611 14.7247 11.1009 14.7086 11.1407 14.6918C11.2173 14.6595 11.294 14.6281 11.3698 14.5959C11.5231 14.5322 11.6755 14.4685 11.8288 14.4048L12.7459 14.022C13.3573 13.7673 13.9695 13.5118 14.581 13.2571C15.1924 13.0023 15.8046 12.7469 16.416 12.4921C17.0275 12.2374 17.6396 11.9819 18.2511 11.7272C18.8625 11.4725 19.4747 11.217 20.0861 10.9623C20.2221 10.9052 20.3693 10.8203 20.515 10.7954C20.6375 10.7742 20.7569 10.7332 20.8801 10.7105C21.1137 10.6673 21.3713 10.6497 21.5952 10.7442C21.6726 10.7771 21.7439 10.8232 21.8033 10.881C22.0872 11.1548 22.0474 11.6042 21.9873 11.9893C21.5689 14.6727 21.1505 17.3569 20.7314 20.0404C20.6743 20.4086 20.5962 20.8126 20.298 21.0454C20.0456 21.2423 19.6865 21.2643 19.3748 21.1808C19.0631 21.0966 18.7882 20.9202 18.5185 20.7467C17.4 20.025 16.2808 19.3033 15.1624 18.5815C14.8965 18.4102 14.6005 18.1863 14.6035 17.8752C14.605 17.6878 14.7199 17.5209 14.8371 17.3723C15.8091 16.1367 17.2115 15.2876 18.2548 14.1091C18.4021 13.9429 18.5177 13.6428 18.3157 13.5469C18.1955 13.4898 18.0573 13.5674 17.9476 13.6414C16.5685 14.5746 15.1902 15.5086 13.8111 16.4419C13.3611 16.7464 12.8894 17.0597 12.3471 17.1344C11.8618 17.2017 11.3736 17.07 10.9041 16.9353C10.5105 16.8226 10.1176 16.7069 9.7263 16.5876C9.51823 16.5246 9.3034 16.4566 9.14266 16.3138C8.98191 16.1711 8.88953 15.931 8.98643 15.7407C9.04727 15.6214 9.16521 15.546 9.28915 15.4845L9.29063 15.4852Z" fill="#F2F7FE"/>
</svg>
