<svg width="31" height="31" viewBox="0 0 31 31" fill="none" xmlns="http://www.w3.org/2000/svg">
<rect x="0.246338" y="0.951172" width="30" height="30" rx="10.1291" fill="#3A3A44" fill-opacity="0.4"/>
<g clip-path="url(#clip0_6_949)">
<path d="M16.2596 15.9491C16.2596 18.5282 14.2662 20.619 11.8071 20.619C9.34806 20.619 7.35461 18.5282 7.35461 15.9491C7.35461 13.3701 9.34806 11.2793 11.8071 11.2793C14.2661 11.2793 16.2596 13.3701 16.2596 15.9491Z" fill="white"/>
<path d="M21.145 15.9486C21.145 18.3763 20.1483 20.3444 18.9188 20.3444C17.6892 20.3444 16.6925 18.3763 16.6925 15.9486C16.6925 13.5208 17.6892 11.5527 18.9188 11.5527C20.1483 11.5527 21.145 13.5208 21.145 15.9486Z" fill="white"/>
<path d="M23.1413 15.9522C23.1413 18.1273 22.7907 19.8906 22.3583 19.8906C21.9258 19.8906 21.5753 18.1273 21.5753 15.9522C21.5753 13.777 21.9258 12.0137 22.3583 12.0137C22.7907 12.0137 23.1413 13.777 23.1413 15.9522Z" fill="white"/>
</g>
<defs>
<clipPath id="clip0_6_949">
<rect width="15.7875" height="16.4453" fill="white" transform="translate(7.35266 7.72852)"/>
</clipPath>
</defs>
</svg>
