<svg width="26" height="26" viewBox="0 0 26 26" fill="none" xmlns="http://www.w3.org/2000/svg">
<g clip-path="url(#clip0_73_358)">
<path d="M8.25 8.47485V24.8254H23.9048C25.021 24.8254 25.9258 23.9207 25.9258 22.8044V8.47485H8.25ZM15.7505 21.6516C15.7505 22.0564 15.4233 22.384 15.0181 22.384H12.0884C11.6841 22.384 11.356 22.0564 11.356 21.6516V18.7219C11.356 18.3176 11.6841 17.9895 12.0884 17.9895H15.0181C15.4233 17.9895 15.7505 18.3176 15.7505 18.7219V21.6516ZM15.7505 15.7078C15.7505 16.1121 15.4233 16.4402 15.0181 16.4402H12.0884C11.6841 16.4402 11.356 16.1121 11.356 15.7078V12.7781C11.356 12.3733 11.6841 12.0457 12.0884 12.0457H15.0181C15.4233 12.0457 15.7505 12.3733 15.7505 12.7781V15.7078ZM21.606 21.6516C21.606 22.0564 21.2783 22.384 20.8735 22.384H17.9438C17.54 22.384 17.2114 22.0564 17.2114 21.6516V18.7219C17.2114 18.3176 17.54 17.9895 17.9438 17.9895H20.8735C21.2783 17.9895 21.606 18.3176 21.606 18.7219V21.6516ZM22.605 14.2385L20.5332 16.3103C20.251 16.594 19.7852 16.5979 19.4976 16.3103L17.4263 14.2385C17.1392 13.9524 17.1406 13.4875 17.4263 13.2029L19.4976 11.1311C19.7842 10.8445 20.248 10.845 20.5332 11.1311L22.605 13.2029C22.8906 13.4885 22.8916 13.9514 22.605 14.2385Z" fill="url(#paint0_linear_73_358)"/>
<path d="M0.925781 8.47485V22.8044C0.925781 23.9207 1.83057 24.8254 2.94678 24.8254H6.78516V8.47485H0.925781ZM3.85547 19.9622C3.45117 19.9622 3.12305 19.634 3.12305 19.2297C3.12305 18.825 3.45117 18.4973 3.85547 18.4973C4.25977 18.4973 4.58789 18.825 4.58789 19.2297C4.58789 19.634 4.25977 19.9622 3.85547 19.9622ZM3.85547 17.0325C3.45117 17.0325 3.12305 16.7043 3.12305 16.3C3.12305 15.8953 3.45117 15.5676 3.85547 15.5676C4.25977 15.5676 4.58789 15.8953 4.58789 16.3C4.58789 16.7043 4.25977 17.0325 3.85547 17.0325ZM3.85547 14.1028C3.45117 14.1028 3.12305 13.7747 3.12305 13.3704C3.12305 12.9656 3.45117 12.6379 3.85547 12.6379C4.25977 12.6379 4.58789 12.9656 4.58789 13.3704C4.58789 13.7747 4.25977 14.1028 3.85547 14.1028Z" fill="url(#paint1_linear_73_358)"/>
<path d="M23.9048 1.79419H2.94678C1.83252 1.79419 0.925781 2.70093 0.925781 3.81519V7.01001H25.9258V3.81519C25.9258 2.70093 25.019 1.79419 23.9048 1.79419ZM3.85547 5.13452C3.45117 5.13452 3.12305 4.8064 3.12305 4.4021C3.12305 3.9978 3.45117 3.66968 3.85547 3.66968C4.25977 3.66968 4.58789 3.9978 4.58789 4.4021C4.58789 4.8064 4.25977 5.13452 3.85547 5.13452ZM19.8174 5.13452C19.4131 5.13452 19.085 4.8064 19.085 4.4021C19.085 3.9978 19.4131 3.66968 19.8174 3.66968C20.2217 3.66968 20.5498 3.9978 20.5498 4.4021C20.5498 4.8064 20.2217 5.13452 19.8174 5.13452ZM22.7471 5.13452C22.3428 5.13452 22.0146 4.8064 22.0146 4.4021C22.0146 3.9978 22.3428 3.66968 22.7471 3.66968C23.1514 3.66968 23.4795 3.9978 23.4795 4.4021C23.4795 4.8064 23.1514 5.13452 22.7471 5.13452Z" fill="url(#paint2_linear_73_358)"/>
</g>
<defs>
<linearGradient id="paint0_linear_73_358" x1="17.0879" y1="8.47485" x2="17.0879" y2="24.8254" gradientUnits="userSpaceOnUse">
<stop stop-color="#917EFE"/>
<stop offset="1" stop-color="white"/>
</linearGradient>
<linearGradient id="paint1_linear_73_358" x1="3.85547" y1="8.47485" x2="3.85547" y2="24.8254" gradientUnits="userSpaceOnUse">
<stop stop-color="#917EFE"/>
<stop offset="1" stop-color="white"/>
</linearGradient>
<linearGradient id="paint2_linear_73_358" x1="13.4258" y1="1.79419" x2="13.4258" y2="7.01001" gradientUnits="userSpaceOnUse">
<stop stop-color="#917EFE"/>
<stop offset="1" stop-color="white"/>
</linearGradient>
<clipPath id="clip0_73_358">
<rect width="25" height="25" fill="white" transform="translate(0.925781 0.809814)"/>
</clipPath>
</defs>
</svg>
