<svg width="26" height="26" viewBox="0 0 26 26" fill="none" xmlns="http://www.w3.org/2000/svg">
<path d="M25.9063 13.3783C25.9063 6.49116 20.3033 0.887939 13.4162 0.887939C6.529 0.887939 0.925781 6.49116 0.925781 13.3783C0.925781 20.2655 6.529 25.8684 13.4162 25.8684C20.3033 25.8684 25.9063 20.2655 25.9063 13.3783ZM5.95642 13.3783C5.95642 11.3848 6.73199 9.5112 8.14036 8.10252C8.59892 7.64427 9.34208 7.64397 9.80063 8.10252C10.2592 8.56107 10.2592 9.30424 9.80063 9.76279C8.83584 10.7279 8.30422 12.0118 8.30422 13.3783C8.30422 14.0264 7.77872 14.5522 7.13032 14.5522C6.48223 14.5522 5.95642 14.0264 5.95642 13.3783ZM8.97065 18.9975C8.32256 18.9975 7.79675 18.4716 7.79675 17.8236C7.79675 17.1758 8.32256 16.6497 8.97065 16.6497C9.61874 16.6497 10.1445 17.1758 10.1445 17.8236C10.1445 18.4716 9.61874 18.9975 8.97065 18.9975Z" fill="url(#paint0_linear_73_342)"/>
<defs>
<linearGradient id="paint0_linear_73_342" x1="13.416" y1="0.887939" x2="13.416" y2="25.8684" gradientUnits="userSpaceOnUse">
<stop stop-color="#917EFE"/>
<stop offset="1" stop-color="white"/>
</linearGradient>
</defs>
</svg>
