<svg width="26" height="26" viewBox="0 0 26 26" fill="none" xmlns="http://www.w3.org/2000/svg">
<g clip-path="url(#clip0_73_332)">
<path d="M24.3451 23.585H23.5645V5.63031C23.5645 5.52778 23.5444 5.42624 23.5052 5.33151C23.466 5.23677 23.4085 5.15069 23.336 5.07819C23.2634 5.00569 23.1774 4.94819 23.0826 4.90898C22.9879 4.86977 22.8864 4.84961 22.7838 4.84967H18.1C17.9975 4.84961 17.8959 4.86977 17.8012 4.90898C17.7064 4.94819 17.6204 5.00569 17.5479 5.07819C17.4754 5.15069 17.4179 5.23677 17.3786 5.33151C17.3394 5.42624 17.3193 5.52778 17.3193 5.63031V23.585H16.5387V9.53351C16.5388 9.43098 16.5186 9.32944 16.4794 9.23471C16.4402 9.13997 16.3827 9.05389 16.3102 8.98139C16.2377 8.90889 16.1516 8.85139 16.0569 8.81218C15.9621 8.77297 15.8606 8.75281 15.7581 8.75287H11.0742C10.9717 8.75281 10.8702 8.77297 10.7754 8.81218C10.6807 8.85139 10.5946 8.90889 10.5221 8.98139C10.4496 9.05389 10.3921 9.13997 10.3529 9.23471C10.3137 9.32944 10.2935 9.43098 10.2936 9.53351V23.585H9.51294V13.4367C9.513 13.3342 9.49285 13.2326 9.45364 13.1379C9.41443 13.0432 9.35693 12.9571 9.28443 12.8846C9.21193 12.8121 9.12585 12.7546 9.03111 12.7154C8.93637 12.6762 8.83484 12.656 8.7323 12.6561H4.04846C3.94593 12.656 3.84439 12.6762 3.74966 12.7154C3.65492 12.7546 3.56884 12.8121 3.49634 12.8846C3.42384 12.9571 3.36634 13.0432 3.32713 13.1379C3.28792 13.2326 3.26776 13.3342 3.26782 13.4367V23.585H2.48718C2.28014 23.585 2.08159 23.6673 1.93519 23.8137C1.78879 23.9601 1.70654 24.1586 1.70654 24.3657C1.70654 24.5727 1.78879 24.7713 1.93519 24.9177C2.08159 25.0641 2.28014 25.1463 2.48718 25.1463H24.3451C24.5521 25.1463 24.7507 25.0641 24.8971 24.9177C25.0435 24.7713 25.1257 24.5727 25.1257 24.3657C25.1257 24.1586 25.0435 23.9601 24.8971 23.8137C24.7507 23.6673 24.5521 23.585 24.3451 23.585Z" fill="url(#paint0_linear_73_332)"/>
<path d="M5.46126 5.30667C5.50799 5.16282 5.71149 5.16282 5.75823 5.30667L6.27575 6.89943C6.29665 6.96375 6.3566 7.00731 6.42424 7.00731H8.09896C8.25021 7.00731 8.31309 7.20085 8.19073 7.28975L6.83585 8.27413C6.78113 8.31388 6.75823 8.38435 6.77913 8.44868L7.29665 10.0414C7.34339 10.1853 7.17876 10.3049 7.0564 10.216L5.70151 9.23162C5.64679 9.19186 5.57269 9.19186 5.51797 9.23162L4.16309 10.216C4.04073 10.3049 3.8761 10.1853 3.92284 10.0414L4.44035 8.44868C4.46126 8.38435 4.43836 8.31388 4.38364 8.27413L3.02875 7.28975C2.90639 7.20085 2.96928 7.00731 3.12052 7.00731H4.79525C4.86289 7.00731 4.92284 6.96375 4.94374 6.89943L5.46126 5.30667Z" fill="url(#paint1_linear_73_332)"/>
</g>
<defs>
<linearGradient id="paint0_linear_73_332" x1="13.4161" y1="1.72711" x2="13.4161" y2="25.1463" gradientUnits="userSpaceOnUse">
<stop stop-color="#917EFE"/>
<stop offset="1" stop-color="white"/>
</linearGradient>
<linearGradient id="paint1_linear_73_332" x1="13.4161" y1="1.72711" x2="13.4161" y2="25.1463" gradientUnits="userSpaceOnUse">
<stop stop-color="#917EFE"/>
<stop offset="1" stop-color="white"/>
</linearGradient>
<clipPath id="clip0_73_332">
<rect width="24.9805" height="24.9805" fill="white" transform="translate(0.925781 0.946472)"/>
</clipPath>
</defs>
</svg>
