<svg width="26" height="26" viewBox="0 0 26 26" fill="none" xmlns="http://www.w3.org/2000/svg">
<g clip-path="url(#clip0_73_335)">
<path d="M24.3451 23.5655H23.5645V5.61081C23.5645 5.50828 23.5444 5.40674 23.5052 5.312C23.466 5.21727 23.4085 5.13119 23.336 5.05869C23.2634 4.98618 23.1774 4.92868 23.0826 4.88947C22.9879 4.85026 22.8864 4.83011 22.7838 4.83017H18.1C17.9975 4.83011 17.8959 4.85026 17.8012 4.88947C17.7064 4.92868 17.6204 4.98618 17.5479 5.05869C17.4754 5.13119 17.4179 5.21727 17.3786 5.312C17.3394 5.40674 17.3193 5.50828 17.3193 5.61081V23.5655H16.5387V9.51401C16.5388 9.41148 16.5186 9.30994 16.4794 9.2152C16.4402 9.12047 16.3827 9.03439 16.3102 8.96189C16.2377 8.88938 16.1516 8.83189 16.0569 8.79268C15.9621 8.75347 15.8606 8.73331 15.7581 8.73337H11.0742C10.9717 8.73331 10.8702 8.75347 10.7754 8.79268C10.6807 8.83189 10.5946 8.88938 10.5221 8.96189C10.4496 9.03439 10.3921 9.12047 10.3529 9.2152C10.3137 9.30994 10.2935 9.41148 10.2936 9.51401V23.5655H9.51294V13.4172C9.513 13.3147 9.49285 13.2131 9.45364 13.1184C9.41443 13.0237 9.35693 12.9376 9.28443 12.8651C9.21193 12.7926 9.12585 12.7351 9.03111 12.6959C8.93637 12.6567 8.83484 12.6365 8.7323 12.6366H4.04846C3.94593 12.6365 3.84439 12.6567 3.74966 12.6959C3.65492 12.7351 3.56884 12.7926 3.49634 12.8651C3.42384 12.9376 3.36634 13.0237 3.32713 13.1184C3.28792 13.2131 3.26776 13.3147 3.26782 13.4172V23.5655H2.48718C2.28014 23.5655 2.08159 23.6478 1.93519 23.7942C1.78879 23.9406 1.70654 24.1391 1.70654 24.3462C1.70654 24.5532 1.78879 24.7518 1.93519 24.8982C2.08159 25.0446 2.28014 25.1268 2.48718 25.1268H24.3451C24.5521 25.1268 24.7507 25.0446 24.8971 24.8982C25.0435 24.7518 25.1257 24.5532 25.1257 24.3462C25.1257 24.1391 25.0435 23.9406 24.8971 23.7942C24.7507 23.6478 24.5521 23.5655 24.3451 23.5655Z" fill="url(#paint0_linear_73_335)"/>
<path d="M5.46126 5.28717C5.50799 5.14332 5.71149 5.14332 5.75823 5.28717L6.27575 6.87993C6.29665 6.94425 6.3566 6.98781 6.42424 6.98781H8.09896C8.25021 6.98781 8.31309 7.18135 8.19073 7.27025L6.83585 8.25463C6.78113 8.29438 6.75823 8.36485 6.77913 8.42918L7.29665 10.0219C7.34339 10.1658 7.17876 10.2854 7.0564 10.1965L5.70151 9.21212C5.64679 9.17236 5.57269 9.17236 5.51797 9.21212L4.16309 10.1965C4.04073 10.2854 3.8761 10.1658 3.92284 10.0219L4.44035 8.42918C4.46126 8.36485 4.43836 8.29438 4.38364 8.25463L3.02875 7.27025C2.90639 7.18135 2.96928 6.98781 3.12052 6.98781H4.79525C4.86289 6.98781 4.92284 6.94425 4.94374 6.87993L5.46126 5.28717Z" fill="url(#paint1_linear_73_335)"/>
</g>
<path d="M13.2259 0.512717C13.2857 0.328599 13.5462 0.3286 13.606 0.512718L14.1563 2.20623C14.183 2.28857 14.2598 2.34432 14.3463 2.34432H16.127C16.3206 2.34432 16.4011 2.59205 16.2445 2.70584L14.8039 3.75249C14.7338 3.80337 14.7045 3.89358 14.7313 3.97592L15.2815 5.66943C15.3414 5.85355 15.1306 6.00665 14.974 5.89286L13.5334 4.84621C13.4634 4.79532 13.3685 4.79532 13.2985 4.84621L11.8579 5.89286C11.7013 6.00665 11.4906 5.85355 11.5504 5.66943L12.1006 3.97592C12.1274 3.89358 12.0981 3.80337 12.028 3.75249L10.5875 2.70584C10.4308 2.59205 10.5113 2.34432 10.7049 2.34432H12.4856C12.5722 2.34432 12.6489 2.28857 12.6757 2.20623L13.2259 0.512717Z" fill="#B9ADFF"/>
<defs>
<linearGradient id="paint0_linear_73_335" x1="13.4161" y1="1.70761" x2="13.4161" y2="25.1268" gradientUnits="userSpaceOnUse">
<stop stop-color="#917EFE"/>
<stop offset="1" stop-color="white"/>
</linearGradient>
<linearGradient id="paint1_linear_73_335" x1="13.4161" y1="1.70761" x2="13.4161" y2="25.1268" gradientUnits="userSpaceOnUse">
<stop stop-color="#917EFE"/>
<stop offset="1" stop-color="white"/>
</linearGradient>
<clipPath id="clip0_73_335">
<rect width="24.9805" height="24.9805" fill="white" transform="translate(0.925781 0.926971)"/>
</clipPath>
</defs>
</svg>
