<svg width="25" height="25" viewBox="0 0 25 25" fill="none" xmlns="http://www.w3.org/2000/svg">
<path d="M12.9258 5.50311C9.17798 5.50311 6.12891 8.55219 6.12891 12.3C6.12891 16.0478 9.17798 19.0969 12.9258 19.0969C16.6736 19.0969 19.7227 16.0478 19.7227 12.3C19.7227 8.55219 16.6736 5.50311 12.9258 5.50311ZM17.681 12.6333H16.2747V11.3308L12.9258 14.6798L11.4258 13.1798L8.92294 15.6826L7.92858 14.6883L11.4258 11.1911L12.9258 12.6911L15.2804 10.3365H13.9778V8.93024H17.681V12.6333Z" fill="url(#paint0_linear_1533_2180)"/>
<path d="M24.9258 13.8V10.8H23.3187C23.1992 9.96482 22.9817 9.16138 22.6778 8.40172L24.0681 7.59903L22.5681 5.00094L21.176 5.80466C20.6622 5.15291 20.0729 4.56355 19.4211 4.04975L20.2248 2.65766L17.6267 1.15766L16.824 2.54797C16.0644 2.24403 15.261 2.02658 14.4258 1.9071V0.299988H11.4258V1.9071C10.5906 2.02658 9.78717 2.24403 9.02752 2.54797L8.22483 1.15766L5.62673 2.65766L6.43045 4.04975C5.7787 4.56355 5.18934 5.15291 4.67555 5.80466L3.28345 5.00094L1.78345 7.59903L3.17377 8.40172C2.86983 9.16138 2.65237 9.96482 2.53289 10.8H0.925781V13.8H2.53289C2.65237 14.6352 2.86983 15.4386 3.17377 16.1983L1.78345 17.0009L3.28345 19.599L4.67555 18.7953C5.18934 19.4471 5.7787 20.0364 6.43045 20.5502L5.62673 21.9423L8.22483 23.4423L9.02752 22.052C9.78717 22.3559 10.5906 22.5734 11.4258 22.6929V24.3H14.4258V22.6929C15.261 22.5734 16.0644 22.3559 16.824 22.052L17.6267 23.4423L20.2248 21.9423L19.4211 20.5502C20.0729 20.0364 20.6622 19.4471 21.176 18.7953L22.5681 19.599L24.0681 17.0009L22.6778 16.1983C22.9817 15.4386 23.1992 14.6352 23.3187 13.8H24.9258ZM12.9258 20.5031C8.40258 20.5031 4.72266 16.8232 4.72266 12.3C4.72266 7.77678 8.40258 4.09686 12.9258 4.09686C17.449 4.09686 21.1289 7.77678 21.1289 12.3C21.1289 16.8232 17.449 20.5031 12.9258 20.5031Z" fill="url(#paint1_linear_1533_2180)"/>
<defs>
<linearGradient id="paint0_linear_1533_2180" x1="12.9258" y1="5.50311" x2="12.9258" y2="19.0969" gradientUnits="userSpaceOnUse">
<stop stop-color="#917EFE"/>
<stop offset="1" stop-color="white"/>
</linearGradient>
<linearGradient id="paint1_linear_1533_2180" x1="12.9258" y1="0.299988" x2="12.9258" y2="24.3" gradientUnits="userSpaceOnUse">
<stop stop-color="#917EFE"/>
<stop offset="1" stop-color="white"/>
</linearGradient>
</defs>
</svg>
