<svg width="26" height="26" viewBox="0 0 26 26" fill="none" xmlns="http://www.w3.org/2000/svg">
<path d="M19.2938 0.90741H7.53826C3.89405 0.90741 0.925781 3.87568 0.925781 7.51989V19.2754C0.925781 22.9196 3.89405 25.8879 7.53826 25.8879H19.2938C22.938 25.8879 25.9063 22.9196 25.9063 19.2754V7.51989C25.9063 3.87568 22.938 0.90741 19.2938 0.90741ZM22.2327 14.1324H18.2799L15.5467 19.5987C15.2675 20.1571 14.4593 20.1424 14.2095 19.5546L10.5653 11.0465L9.71303 13.6181C9.61017 13.912 9.33098 14.1177 9.0224 14.1177H4.61408C4.20263 14.1177 3.87936 13.7944 3.87936 13.383C3.87936 12.9715 4.20263 12.6482 4.61408 12.6482H8.4934L9.8012 8.73953C10.0069 8.13706 10.8886 8.0195 11.1678 8.68075L14.9589 17.5121L17.1925 13.045C17.31 12.7952 17.5745 12.6335 17.8537 12.6335H22.2621C22.6735 12.6335 22.9968 12.9568 22.9968 13.3683C22.9968 13.7797 22.6735 14.103 22.2621 14.103L22.2327 14.1324Z" fill="url(#paint0_linear_1540_669)"/>
<defs>
<linearGradient id="paint0_linear_1540_669" x1="0.925781" y1="5.4039" x2="23.4082" y2="23.8895" gradientUnits="userSpaceOnUse">
<stop stop-color="#917EFE"/>
<stop offset="1" stop-color="white"/>
</linearGradient>
</defs>
</svg>
