<svg width="26" height="25" viewBox="0 0 26 25" fill="none" xmlns="http://www.w3.org/2000/svg">
<g clip-path="url(#clip0_73_316)">
<path fill-rule="evenodd" clip-rule="evenodd" d="M21.2383 13.2765C21.2383 12.6546 20.9914 12.0585 20.5516 11.6195C20.1125 11.1796 19.5164 10.9328 18.8945 10.9328C16.1891 10.9328 10.6625 10.9328 7.95703 10.9328C7.33516 10.9328 6.73906 11.1796 6.3 11.6195C5.86015 12.0585 5.61328 12.6546 5.61328 13.2765V22.6515C5.61328 23.2734 5.86015 23.8695 6.3 24.3086C6.73906 24.7484 7.33516 24.9953 7.95703 24.9953H18.8945C19.5164 24.9953 20.1125 24.7484 20.5516 24.3086C20.9914 23.8695 21.2383 23.2734 21.2383 22.6515V13.2765ZM15.7695 15.6203V20.3078C15.7695 20.739 16.1195 21.089 16.5508 21.089C16.982 21.089 17.332 20.739 17.332 20.3078V15.6203C17.332 15.189 16.982 14.839 16.5508 14.839C16.1195 14.839 15.7695 15.189 15.7695 15.6203ZM9.51953 20.3078V17.1812C9.51953 15.8875 10.568 14.839 11.8617 14.839H11.8648C13.1586 14.839 14.207 15.8875 14.207 17.1812V20.3078C14.207 20.739 13.857 21.089 13.4258 21.089C12.9945 21.089 12.6445 20.739 12.6445 20.3078V19.5265H11.082V20.3078C11.082 20.739 10.732 21.089 10.3008 21.089C9.86953 21.089 9.51953 20.739 9.51953 20.3078ZM12.6445 17.964V17.1812C12.6445 16.7507 12.2953 16.4015 11.8648 16.4015C11.8641 16.4015 11.8625 16.4015 11.8617 16.4015C11.4313 16.4015 11.082 16.7507 11.082 17.1812V17.964H12.6445Z" fill="url(#paint0_linear_73_316)"/>
<path fill-rule="evenodd" clip-rule="evenodd" d="M9.51953 11.714V5.46402C9.51953 4.42808 9.93125 3.43434 10.6633 2.70152C11.3961 1.96949 12.3898 1.55777 13.4258 1.55777C14.4617 1.55777 15.4555 1.96949 16.1883 2.70152C16.9203 3.43434 17.332 4.42808 17.332 5.46402V11.714C17.332 12.1453 17.682 12.4953 18.1133 12.4953C18.5445 12.4953 18.8945 12.1453 18.8945 11.714C18.8945 11.714 18.8945 8.43199 18.8945 5.46402C18.8945 4.01324 18.3187 2.62262 17.293 1.59683C16.2672 0.571835 14.8766 -0.00473022 13.4258 -0.00473022V0.77652C13.4258 -0.00473022 13.4258 -0.00473022 13.4258 -0.00473022C11.975 -0.00473022 10.5844 0.571835 9.5586 1.59683C8.53281 2.62262 7.95703 4.01324 7.95703 5.46402V11.714C7.95703 12.1453 8.30703 12.4953 8.73828 12.4953C9.16953 12.4953 9.51953 12.1453 9.51953 11.714Z" fill="url(#paint1_linear_73_316)"/>
</g>
<defs>
<linearGradient id="paint0_linear_73_316" x1="13.4258" y1="10.9328" x2="13.4258" y2="24.9953" gradientUnits="userSpaceOnUse">
<stop stop-color="#917EFE"/>
<stop offset="1" stop-color="white"/>
</linearGradient>
<linearGradient id="paint1_linear_73_316" x1="13.4258" y1="-0.00473022" x2="13.4258" y2="12.4953" gradientUnits="userSpaceOnUse">
<stop stop-color="#917EFE"/>
<stop offset="1" stop-color="white"/>
</linearGradient>
<clipPath id="clip0_73_316">
<rect width="25" height="25" fill="white" transform="translate(0.925781 -0.00473022)"/>
</clipPath>
</defs>
</svg>
