<svg width="25" height="24" viewBox="0 0 25 24" fill="none" xmlns="http://www.w3.org/2000/svg">
<g clip-path="url(#clip0_73_370)">
<path d="M8.73669 4.9502H16.5713L18.2622 3.59751C18.8379 3.13814 19.0529 2.3924 18.8095 1.69651C18.5662 1.00062 17.9338 0.552002 17.1988 0.552002H8.10921C7.37422 0.552002 6.74186 1.0016 6.49849 1.69651C6.25513 2.39142 6.47015 3.13814 7.04485 3.59653L8.73669 4.9502Z" fill="url(#paint0_linear_73_370)"/>
<path d="M16.7055 6.41626H8.60307C5.93386 9.03661 3.85791 13.6342 3.85791 17.4117C3.85791 20.6947 5.59569 24.009 9.47782 24.009H16.0751C19.3914 24.009 21.4507 21.4806 21.4507 17.4117C21.4507 13.6342 19.3747 9.03661 16.7055 6.41626ZM12.2829 14.4796H13.0257C14.1683 14.4796 15.0977 15.4091 15.0977 16.5517C15.0977 17.5789 14.3569 18.4243 13.3873 18.5963V19.3655C13.3873 19.7702 13.0589 20.0986 12.6543 20.0986C12.2497 20.0986 11.9213 19.7702 11.9213 19.3655V18.6335H10.9439C10.5393 18.6335 10.2109 18.3051 10.2109 17.9004C10.2109 17.4958 10.5393 17.1674 10.9439 17.1674H13.0257C13.36 17.1674 13.6317 16.8957 13.6317 16.5614C13.6317 16.2174 13.36 15.9457 13.0257 15.9457H12.2829C11.1403 15.9457 10.2109 15.0162 10.2109 13.8736C10.2109 12.8464 10.9517 12.001 11.9213 11.829V11.0588C11.9213 10.6542 12.2497 10.3258 12.6543 10.3258C13.0589 10.3258 13.3873 10.6542 13.3873 11.0588V11.7918H14.3647C14.7693 11.7918 15.0977 12.1202 15.0977 12.5249C15.0977 12.9295 14.7693 13.2579 14.3647 13.2579H12.2829C11.9486 13.2579 11.6769 13.5296 11.6769 13.8639C11.6769 14.2079 11.9486 14.4796 12.2829 14.4796Z" fill="url(#paint1_linear_73_370)"/>
</g>
<defs>
<linearGradient id="paint0_linear_73_370" x1="12.654" y1="0.552002" x2="12.654" y2="4.9502" gradientUnits="userSpaceOnUse">
<stop stop-color="#917EFE"/>
<stop offset="1" stop-color="white"/>
</linearGradient>
<linearGradient id="paint1_linear_73_370" x1="12.6543" y1="6.41626" x2="12.6543" y2="24.009" gradientUnits="userSpaceOnUse">
<stop stop-color="#917EFE"/>
<stop offset="1" stop-color="white"/>
</linearGradient>
<clipPath id="clip0_73_370">
<rect width="23.457" height="23.457" fill="white" transform="translate(0.925781 0.552002)"/>
</clipPath>
</defs>
</svg>
