<svg width="26" height="26" viewBox="0 0 26 26" fill="none" xmlns="http://www.w3.org/2000/svg">
<g clip-path="url(#clip0_73_350)">
<path d="M12.7294 6.97257L12.7294 2.92969C10.2814 3.08791 7.98694 4.03834 6.14404 5.65744L9.0048 8.51819C10.0741 7.64636 11.3596 7.11294 12.7294 6.97257Z" fill="url(#paint0_linear_73_350)"/>
<path d="M20.4984 14.7414C20.3333 16.3521 19.6249 17.8467 18.4617 19.0098C17.1242 20.3474 15.3483 21.0841 13.4615 21.0841C13.4613 21.0841 13.4615 21.0841 13.4614 21.0841C11.774 21.0841 10.2229 20.4899 9.00572 19.5002L6.14429 22.3616C8.1698 24.1412 10.7407 25.1137 13.4614 25.1137C16.4275 25.1137 19.216 23.9586 21.3133 21.8614C23.2371 19.9375 24.3674 17.4319 24.5413 14.7413H20.4984V14.7414Z" fill="url(#paint1_linear_73_350)"/>
<path d="M22.3252 5.14558C20.361 3.1813 17.7684 1.91169 15.025 1.57055C14.8106 1.54357 14.6032 1.60772 14.4417 1.75048C14.2814 1.89207 14.1931 2.08787 14.1931 2.30171V6.97262C17.5106 7.31523 20.1556 9.96013 20.4982 13.2777L25.1691 13.2778C25.383 13.2778 25.5788 13.1894 25.7203 13.0292C25.8631 12.8676 25.9269 12.6605 25.9002 12.4459C25.9002 12.4459 25.9002 12.4459 25.9002 12.4458C25.5592 9.70247 24.2895 7.10982 22.3252 5.14558Z" fill="url(#paint2_linear_73_350)"/>
<path d="M7.96764 18.4683C6.94349 17.2112 6.3868 15.6532 6.3868 14.0096C6.38675 12.3683 6.94422 10.8109 7.96969 9.55288L4.66558 6.24877C4.52478 6.10796 4.34118 6.03204 4.14426 6.03204C4.12841 6.03204 4.11255 6.03253 4.0965 6.03351C3.88455 6.04663 3.69642 6.14548 3.56674 6.31195C1.83903 8.52946 0.925781 11.1912 0.925781 14.0096C0.925781 16.8279 1.83903 19.4896 3.56678 21.7071C3.69647 21.8736 3.88465 21.9725 4.09655 21.9856C4.31117 21.9988 4.51346 21.9224 4.66558 21.7703L7.96764 18.4683Z" fill="url(#paint3_linear_73_350)"/>
<path d="M13.2259 10.4268C13.2857 10.2427 13.5462 10.2427 13.606 10.4268L14.1563 12.1203C14.183 12.2027 14.2598 12.2584 14.3463 12.2584H16.127C16.3206 12.2584 16.4011 12.5061 16.2445 12.6199L14.8039 13.6666C14.7338 13.7175 14.7045 13.8077 14.7313 13.89L15.2815 15.5835C15.3414 15.7676 15.1306 15.9207 14.974 15.807L13.5334 14.7603C13.4634 14.7094 13.3685 14.7094 13.2985 14.7603L11.8579 15.807C11.7013 15.9207 11.4906 15.7676 11.5504 15.5835L12.1006 13.89C12.1274 13.8077 12.0981 13.7175 12.028 13.6666L10.5875 12.6199C10.4308 12.5061 10.5113 12.2584 10.7049 12.2584H12.4856C12.5722 12.2584 12.6489 12.2027 12.6757 12.1203L13.2259 10.4268Z" fill="#B9ADFF"/>
</g>
<defs>
<linearGradient id="paint0_linear_73_350" x1="9.43673" y1="2.92969" x2="9.43673" y2="8.51819" gradientUnits="userSpaceOnUse">
<stop stop-color="#917EFE"/>
<stop offset="1" stop-color="white"/>
</linearGradient>
<linearGradient id="paint1_linear_73_350" x1="15.3428" y1="14.7413" x2="15.3428" y2="25.1137" gradientUnits="userSpaceOnUse">
<stop stop-color="#917EFE"/>
<stop offset="1" stop-color="white"/>
</linearGradient>
<linearGradient id="paint2_linear_73_350" x1="20.0496" y1="1.56451" x2="20.0496" y2="13.2778" gradientUnits="userSpaceOnUse">
<stop stop-color="#917EFE"/>
<stop offset="1" stop-color="white"/>
</linearGradient>
<linearGradient id="paint3_linear_73_350" x1="4.44774" y1="6.03204" x2="4.44774" y2="21.9871" gradientUnits="userSpaceOnUse">
<stop stop-color="#917EFE"/>
<stop offset="1" stop-color="white"/>
</linearGradient>
<clipPath id="clip0_73_350">
<rect width="24.9805" height="24.9805" fill="white" transform="translate(0.925781 0.848877)"/>
</clipPath>
</defs>
</svg>
