<svg width="26" height="26" viewBox="0 0 26 26" fill="none" xmlns="http://www.w3.org/2000/svg">
<g clip-path="url(#clip0_73_346)">
<path d="M12.7294 6.99211L12.7294 2.94922C10.2814 3.10744 7.98694 4.05787 6.14404 5.67697L9.0048 8.53772C10.0741 7.66589 11.3596 7.13247 12.7294 6.99211Z" fill="url(#paint0_linear_73_346)"/>
<path d="M20.4984 14.7609C20.3333 16.3717 19.6249 17.8662 18.4617 19.0294C17.1242 20.3669 15.3483 21.1036 13.4615 21.1036C13.4613 21.1036 13.4615 21.1036 13.4614 21.1036C11.774 21.1036 10.2229 20.5094 9.00572 19.5197L6.14429 22.3812C8.1698 24.1607 10.7407 25.1332 13.4614 25.1332C16.4275 25.1332 19.216 23.9782 21.3133 21.8809C23.2371 19.957 24.3674 17.4514 24.5413 14.7609H20.4984V14.7609Z" fill="url(#paint1_linear_73_346)"/>
<path d="M22.3252 5.16512C20.361 3.20083 17.7684 1.93122 15.025 1.59008C14.8106 1.5631 14.6032 1.62726 14.4417 1.77001C14.2814 1.9116 14.1931 2.1074 14.1931 2.32124V6.99216C17.5106 7.33476 20.1556 9.97966 20.4982 13.2972L25.1691 13.2973C25.383 13.2973 25.5788 13.209 25.7203 13.0487C25.8631 12.8871 25.9269 12.68 25.9002 12.4654C25.9002 12.4654 25.9002 12.4654 25.9002 12.4654C25.5592 9.722 24.2895 7.12935 22.3252 5.16512Z" fill="url(#paint2_linear_73_346)"/>
<path d="M7.96764 18.4878C6.94349 17.2307 6.3868 15.6728 6.3868 14.0292C6.38675 12.3878 6.94422 10.8304 7.96969 9.57241L4.66558 6.2683C4.52478 6.12749 4.34118 6.05157 4.14426 6.05157C4.12841 6.05157 4.11255 6.05206 4.0965 6.05304C3.88455 6.06616 3.69642 6.16501 3.56674 6.33148C1.83903 8.54899 0.925781 11.2107 0.925781 14.0291C0.925781 16.8474 1.83903 19.5092 3.56678 21.7267C3.69647 21.8932 3.88465 21.992 4.09655 22.0051C4.31117 22.0183 4.51346 21.9419 4.66558 21.7899L7.96764 18.4878Z" fill="url(#paint3_linear_73_346)"/>
</g>
<defs>
<linearGradient id="paint0_linear_73_346" x1="9.43673" y1="2.94922" x2="9.43673" y2="8.53772" gradientUnits="userSpaceOnUse">
<stop stop-color="#917EFE"/>
<stop offset="1" stop-color="white"/>
</linearGradient>
<linearGradient id="paint1_linear_73_346" x1="15.3428" y1="14.7609" x2="15.3428" y2="25.1332" gradientUnits="userSpaceOnUse">
<stop stop-color="#917EFE"/>
<stop offset="1" stop-color="white"/>
</linearGradient>
<linearGradient id="paint2_linear_73_346" x1="20.0496" y1="1.58405" x2="20.0496" y2="13.2973" gradientUnits="userSpaceOnUse">
<stop stop-color="#917EFE"/>
<stop offset="1" stop-color="white"/>
</linearGradient>
<linearGradient id="paint3_linear_73_346" x1="4.44774" y1="6.05157" x2="4.44774" y2="22.0066" gradientUnits="userSpaceOnUse">
<stop stop-color="#917EFE"/>
<stop offset="1" stop-color="white"/>
</linearGradient>
<clipPath id="clip0_73_346">
<rect width="24.9805" height="24.9805" fill="white" transform="translate(0.925781 0.868408)"/>
</clipPath>
</defs>
</svg>
