<svg width="26" height="26" viewBox="0 0 26 26" fill="none" xmlns="http://www.w3.org/2000/svg">
<path d="M19.0366 7.46479H7.79541C7.2184 7.46477 6.66479 7.69291 6.25532 8.09946C5.84585 8.506 5.61374 9.05797 5.60962 9.63497V19.3852C5.61374 19.9622 5.84585 20.5141 6.25532 20.9207C6.66479 21.3272 7.2184 21.5554 7.79541 21.5553H9.1225V22.7653C9.12231 23.0468 9.20222 23.3225 9.35289 23.5603C9.50356 23.7981 9.71878 23.988 9.9734 24.108C10.1744 24.1996 10.3926 24.2475 10.6135 24.2485C10.9564 24.2476 11.2881 24.126 11.5503 23.9051L14.3762 21.5631H19.0601C19.6343 21.557 20.1831 21.3251 20.5878 20.9175C20.9924 20.5099 21.2204 19.9595 21.2224 19.3852V9.63497C21.2183 9.05797 20.9862 8.506 20.5767 8.09946C20.1673 7.69291 19.6136 7.46477 19.0366 7.46479ZM14.9773 17.1135H9.51282C9.30578 17.1135 9.10722 17.0313 8.96083 16.8849C8.81443 16.7385 8.73218 16.5399 8.73218 16.3329C8.73218 16.1258 8.81443 15.9273 8.96083 15.7809C9.10722 15.6345 9.30578 15.5522 9.51282 15.5522H14.9773C15.1843 15.5522 15.3829 15.6345 15.5293 15.7809C15.6757 15.9273 15.7579 16.1258 15.7579 16.3329C15.7579 16.5399 15.6757 16.7385 15.5293 16.8849C15.3829 17.0313 15.1843 17.1135 14.9773 17.1135ZM17.3192 13.7333H9.51282C9.30578 13.7333 9.10722 13.6511 8.96083 13.5047C8.81443 13.3583 8.73218 13.1597 8.73218 12.9527C8.73218 12.7456 8.81443 12.5471 8.96083 12.4007C9.10722 12.2543 9.30578 12.172 9.51282 12.172H17.3192C17.5263 12.172 17.7248 12.2543 17.8712 12.4007C18.0176 12.5471 18.0999 12.7456 18.0999 12.9527C18.0999 13.1597 18.0176 13.3583 17.8712 13.5047C17.7248 13.6511 17.5263 13.7333 17.3192 13.7333ZM4.04834 17.5428C3.63426 17.5428 3.23715 17.3784 2.94435 17.0856C2.65155 16.7928 2.48706 16.3956 2.48706 15.9816V12.4687C2.48706 12.0546 2.65155 11.6575 2.94435 11.3647C3.23715 11.0719 3.63426 10.9074 4.04834 10.9074V17.5428ZM22.7837 10.9074V17.5428C23.1978 17.5428 23.5949 17.3784 23.8877 17.0856C24.1805 16.7928 24.345 16.3956 24.345 15.9816V12.4687C24.345 12.0546 24.1805 11.6575 23.8877 11.3647C23.5949 11.0719 23.1978 10.9074 22.7837 10.9074ZM17.3192 5.90351V3.17127C17.3192 2.96423 17.4015 2.76567 17.5479 2.61927C17.6943 2.47287 17.8928 2.39063 18.0999 2.39062C18.3069 2.39063 18.5055 2.47287 18.6519 2.61927C18.7983 2.76567 18.8805 2.96423 18.8805 3.17127V5.90351H17.3192Z" fill="url(#paint0_linear_73_354)"/>
<defs>
<linearGradient id="paint0_linear_73_354" x1="13.416" y1="2.39062" x2="13.416" y2="24.2485" gradientUnits="userSpaceOnUse">
<stop stop-color="#917EFE"/>
<stop offset="1" stop-color="white"/>
</linearGradient>
</defs>
</svg>
