<svg width="34" height="33" viewBox="0 0 34 33" fill="none" xmlns="http://www.w3.org/2000/svg">
<path d="M16.0489 0.730762C16.3483 -0.190549 17.6517 -0.190549 17.9511 0.730762L21.2658 10.9324C21.3996 11.3444 21.7836 11.6234 22.2168 11.6234H32.9434C33.9122 11.6234 34.3149 12.863 33.5312 13.4324L24.8532 19.7373C24.5027 19.992 24.3561 20.4434 24.4899 20.8554L27.8046 31.057C28.104 31.9783 27.0495 32.7444 26.2658 32.175L17.5878 25.8701C17.2373 25.6154 16.7627 25.6154 16.4122 25.8701L7.73419 32.175C6.95048 32.7444 5.896 31.9783 6.19535 31.057L9.51006 20.8554C9.64393 20.4434 9.49728 19.992 9.14679 19.7373L0.468768 13.4324C-0.314945 12.863 0.0878302 11.6234 1.05655 11.6234H11.7832C12.2164 11.6234 12.6004 11.3444 12.7342 10.9324L16.0489 0.730762Z" fill="url(#paint0_linear_73_476)"/>
<defs>
<linearGradient id="paint0_linear_73_476" x1="17" y1="-2.19629" x2="17" y2="37.8037" gradientUnits="userSpaceOnUse">
<stop stop-color="#FE7EF1"/>
<stop offset="1" stop-color="white"/>
</linearGradient>
</defs>
</svg>
