<svg width="26" height="26" viewBox="0 0 26 26" fill="none" xmlns="http://www.w3.org/2000/svg">
<path d="M20.1092 16.7547C22.4074 12.9576 21.9078 8.06145 18.6104 4.86394C14.8133 0.966989 8.61819 1.06691 4.82115 4.86394C0.924199 8.66098 0.924199 14.8561 4.82115 18.6532C8.01866 21.8507 12.9148 22.4502 16.7119 20.152C17.5112 21.7508 18.6104 23.3495 19.2099 23.949C20.5089 25.248 22.6073 25.248 23.9062 23.949C25.2052 22.65 25.2052 20.5517 23.9062 19.2527C23.3067 18.6532 21.8079 17.554 20.1092 16.7547ZM16.6119 9.36043L14.2138 13.3573C13.914 13.8569 13.3145 13.9568 12.8149 13.6571L9.81725 11.8585L7.91873 14.7562C7.61897 15.2558 7.01944 15.3557 6.51983 15.056C6.02022 14.7562 5.9203 14.1567 6.22006 13.6571L8.71811 9.95996C9.01788 9.46035 9.61741 9.36043 10.117 9.6602L13.0148 11.4588L14.9133 8.36121C15.213 7.8616 15.8126 7.76168 16.3122 8.06145C16.8118 8.36121 16.9117 8.96074 16.6119 9.36043Z" fill="url(#paint0_linear_73_327)"/>
<defs>
<linearGradient id="paint0_linear_73_327" x1="13.3895" y1="1.97858" x2="13.3895" y2="24.9233" gradientUnits="userSpaceOnUse">
<stop stop-color="#917EFE"/>
<stop offset="1" stop-color="white"/>
</linearGradient>
</defs>
</svg>
