<svg width="26" height="26" viewBox="0 0 26 26" fill="none" xmlns="http://www.w3.org/2000/svg">
<g clip-path="url(#clip0_73_324)">
<path d="M4.52294 19.2712C7.92029 22.5687 12.8165 23.1682 16.5136 21.2697L19.811 24.5671C21.11 25.8661 23.1084 25.8661 24.4074 24.5671C25.7064 23.2681 25.7064 21.2697 24.4074 19.9707L21.11 16.6733C23.1084 12.7763 22.5089 7.78021 19.2115 4.48279C15.1147 0.385987 8.51982 0.385987 4.42302 4.48279C2.42458 6.48122 1.32544 9.07919 1.32544 11.877C1.42536 14.6748 2.5245 17.2728 4.52294 19.2712ZM5.82193 14.1752L8.51982 10.2783C8.71966 9.97849 9.01943 9.77865 9.41912 9.77865C9.71888 9.77865 10.1186 9.97849 10.2185 10.2783L11.7173 12.8762L13.5159 10.2783L12.6166 9.67873C12.2169 9.37896 12.2169 8.67951 12.7165 8.47966L16.014 6.98083C16.5136 6.78099 17.0132 7.18068 17.0132 7.68029L16.9133 11.2775C16.9133 11.877 16.3137 12.1768 15.8141 11.877L15.2146 11.4773L12.5167 15.3743C12.3169 15.674 12.0171 15.774 11.6174 15.774C11.3176 15.774 11.0179 15.5741 10.818 15.2744L9.31919 12.6764L7.5206 15.3743C7.22083 15.8739 6.52138 15.8739 6.12169 15.674C5.62208 15.2744 5.52216 14.5749 5.82193 14.1752Z" fill="url(#paint0_linear_73_324)"/>
</g>
<defs>
<linearGradient id="paint0_linear_73_324" x1="13.3535" y1="1.41019" x2="13.3535" y2="25.5413" gradientUnits="userSpaceOnUse">
<stop stop-color="#917EFE"/>
<stop offset="1" stop-color="white"/>
</linearGradient>
<clipPath id="clip0_73_324">
<rect width="24.9805" height="24.9805" fill="white" transform="translate(0.925781 0.985519)"/>
</clipPath>
</defs>
</svg>
