<svg width="36" height="36" viewBox="0 0 36 36" fill="none" xmlns="http://www.w3.org/2000/svg">
<g clip-path="url(#clip0_809_954)">
<circle cx="18" cy="18.0039" r="17.784" fill="#1D1C25" stroke="url(#paint0_linear_809_954)" stroke-width="0.432"/>
<path d="M14.6444 25.2159C14.0571 24.2029 13.2663 23.3724 12.3144 22.6253C13.3975 22.7755 14.7232 24.2497 14.6444 25.2159ZM20.8442 25.2389C21.4267 24.2167 22.2236 23.3838 23.1292 22.647C22.0256 22.8528 20.8245 24.2126 20.8442 25.2389ZM23.3164 13.3586C22.8997 12.6713 22.6266 12.0011 22.4336 11.2133C22.0973 11.8991 22.6832 13.175 23.3164 13.3586ZM13.4322 11.2798C13.1613 11.9432 12.8716 12.6526 12.5911 13.3394C13.2774 13.0125 13.6711 11.9168 13.4322 11.2798ZM25.666 17.742C25.4304 21.7009 20.2644 22.3231 20.4023 25.9266C19.8803 25.4621 19.7228 24.7988 19.9186 24.1295C19.9071 24.1255 19.8956 24.1214 19.8841 24.1173C19.4928 24.8957 19.2743 25.8272 19.396 26.7083C19.4418 26.9207 19.3238 26.8362 19.2279 26.7323L19.2306 26.7357C19.0223 26.3428 18.8552 25.8819 18.8432 25.4295C18.8267 25.4291 18.81 25.4287 18.7935 25.4283C18.4608 26.4547 18.365 27.5837 17.8938 28.5486C17.6364 27.6477 17.3329 26.7374 17.1641 25.8212C17.125 25.6823 17.0099 25.3572 16.9996 25.3585C16.9892 25.3599 16.9666 25.6762 16.9577 25.8081C16.9912 26.275 16.7142 26.6019 16.4907 26.9243C16.3916 26.2194 16.419 25.4668 16.247 24.7773L16.2492 24.7831C16.2146 24.739 16.0596 24.4356 16.0205 24.3441C16.0648 24.9323 15.8953 25.4974 15.4638 25.9528C15.5967 23.2058 12.5761 22.2142 11.1996 20.2809C9.73348 18.2581 9.51212 14.8454 11.7229 13.2531C10.9102 14.5164 11.223 16.0054 11.96 17.2166C11.9943 17.2578 12.123 17.4085 12.1285 17.2766C11.7424 16.4022 11.876 15.4338 12.3885 14.6354C13.6918 13.4096 14.091 11.7407 14.3559 9.96803C15.3788 11.494 14.8903 13.4141 14.0252 14.8578C14.0263 14.8564 14.027 14.8548 14.0281 14.8535C14.0048 14.8868 13.9971 14.9312 13.9581 14.952C16.3957 13.6209 17.1086 10.1005 17.9176 7.56348C18.615 9.85979 19.1896 12.1902 20.755 14.089C21.1157 14.4239 21.5118 14.7135 21.8837 15.0121C21.05 13.5211 20.5401 11.6531 21.3908 10.0196C21.4273 10.0246 21.4639 10.0296 21.5004 10.0346C21.783 11.5649 22.0156 13.3041 23.2477 14.3708C23.8824 15.154 24.0583 16.175 23.7754 17.141C23.7467 17.1934 23.7674 17.2522 23.7528 17.3068C23.7924 17.338 23.8307 17.224 23.8703 17.2393C24.6539 16.0306 24.8669 14.5218 24.1443 13.2395C25.5323 14.2722 25.968 16.1101 25.6662 17.7419L25.666 17.742ZM19.4282 20.1058C19.3849 20.1526 19.3757 20.2309 19.3506 20.2945C20.4875 20.2972 21.7802 19.6873 22.3181 18.6562C22.5105 18.2312 22.781 17.656 22.601 17.1958C21.3767 17.9837 20.3906 19.0247 19.4281 20.1057L19.4282 20.1058ZM15.6599 15.5455C15.6734 15.5631 15.687 15.5806 15.7005 15.5983C16.7285 15.0419 17.3569 14.102 17.9177 13.1198C18.4933 14.0823 19.0838 15.026 20.1178 15.5711C20.1298 15.5537 20.1419 15.5364 20.1539 15.5189C18.9939 14.5166 18.4907 13.0453 17.9154 11.6638C17.4227 13.092 16.8341 14.5266 15.6598 15.5456L15.6599 15.5455ZM13.6528 18.8672C14.4396 20.0142 15.9134 20.3624 16.5733 20.2889C15.5928 19.1059 14.5298 17.9368 13.1739 17.2031C13.1337 17.6571 13.2318 17.993 13.6528 18.8672ZM23.4819 18.4749C23.4637 18.4681 23.4456 18.4613 23.4274 18.4545C21.5745 22.5654 18.7922 21.0058 17.8929 23.9823C16.5873 20.8637 13.8603 22.31 12.3327 18.4577C12.3074 18.4673 12.2823 18.477 12.2571 18.4867C13.5398 23.2484 17.0928 20.6547 17.847 25.5448C17.8671 25.5454 17.8872 25.5461 17.9073 25.5466C17.9219 25.3951 17.9363 25.2435 17.9509 25.0921C18.6564 20.8636 22.1601 23.2232 23.482 18.4748L23.4819 18.4749Z" fill="url(#paint1_linear_809_954)"/>
</g>
<defs>
<linearGradient id="paint0_linear_809_954" x1="2.61" y1="0.00390618" x2="39.5538" y2="25.2882" gradientUnits="userSpaceOnUse">
<stop stop-color="#917EFE"/>
<stop offset="1" stop-color="white"/>
</linearGradient>
<linearGradient id="paint1_linear_809_954" x1="17.9186" y1="7.56348" x2="17.9281" y2="24.9155" gradientUnits="userSpaceOnUse">
<stop stop-color="#917EFE"/>
<stop offset="1" stop-color="white"/>
</linearGradient>
<clipPath id="clip0_809_954">
<rect width="36" height="36" fill="white" transform="translate(0 0.00390625)"/>
</clipPath>
</defs>
</svg>
