<svg width="61" height="18" viewBox="0 0 61 18" fill="none" xmlns="http://www.w3.org/2000/svg">
<path d="M23.4313 11.1286C23.0916 11.1286 22.7864 11.0695 22.5156 10.9514C22.2498 10.8283 22.0406 10.6609 21.8879 10.4492C21.7353 10.2326 21.6566 9.98398 21.6516 9.70337H22.3679C22.3926 9.9446 22.491 10.1489 22.6633 10.3163C22.8406 10.4788 23.0966 10.56 23.4313 10.56C23.7513 10.56 24.0024 10.4812 24.1846 10.3237C24.3716 10.1612 24.4652 9.95444 24.4652 9.70337C24.4652 9.50644 24.411 9.34644 24.3027 9.22337C24.1944 9.10029 24.059 9.00675 23.8966 8.94275C23.7341 8.87875 23.515 8.80983 23.2393 8.73598C22.8996 8.64737 22.6264 8.55875 22.4196 8.47013C22.2178 8.38152 22.043 8.24367 21.8953 8.0566C21.7526 7.8646 21.6812 7.6086 21.6812 7.2886C21.6812 7.00798 21.7526 6.75937 21.8953 6.54275C22.0381 6.32613 22.2375 6.15875 22.4935 6.0406C22.7544 5.92244 23.0523 5.86337 23.387 5.86337C23.8695 5.86337 24.2633 5.98398 24.5686 6.22521C24.8787 6.46644 25.0535 6.78644 25.0929 7.18521H24.3544C24.3298 6.98829 24.2264 6.81598 24.0443 6.66829C23.8621 6.51567 23.6209 6.43937 23.3206 6.43937C23.0399 6.43937 22.811 6.51321 22.6338 6.6609C22.4566 6.80367 22.3679 7.00552 22.3679 7.26644C22.3679 7.45352 22.4196 7.60613 22.523 7.72429C22.6313 7.84244 22.7618 7.93352 22.9144 7.99752C23.0719 8.0566 23.291 8.12552 23.5716 8.20429C23.9113 8.29783 24.1846 8.39137 24.3913 8.4849C24.5981 8.57352 24.7753 8.71383 24.923 8.90583C25.0707 9.0929 25.1446 9.3489 25.1446 9.67383C25.1446 9.9249 25.0781 10.1612 24.9452 10.3828C24.8123 10.6043 24.6153 10.784 24.3544 10.9218C24.0935 11.0597 23.7858 11.1286 23.4313 11.1286ZM26.8055 7.77598C26.9384 7.5446 27.1353 7.3526 27.3962 7.19998C27.6621 7.04244 27.9698 6.96367 28.3193 6.96367C28.6787 6.96367 29.0036 7.04983 29.2941 7.22213C29.5895 7.39444 29.8208 7.63813 29.9882 7.95321C30.1556 8.26337 30.2393 8.62521 30.2393 9.03875C30.2393 9.44737 30.1556 9.81167 29.9882 10.1317C29.8208 10.4517 29.5895 10.7003 29.2941 10.8775C29.0036 11.0548 28.6787 11.1434 28.3193 11.1434C27.9747 11.1434 27.6695 11.0671 27.4036 10.9144C27.1427 10.7569 26.9433 10.5624 26.8055 10.3311V12.9969H26.1335V7.03013H26.8055V7.77598ZM29.5525 9.03875C29.5525 8.73352 29.491 8.46767 29.3679 8.24121C29.2448 8.01475 29.0775 7.84244 28.8658 7.72429C28.659 7.60613 28.4301 7.54706 28.179 7.54706C27.9328 7.54706 27.7039 7.6086 27.4922 7.73167C27.2855 7.84983 27.1181 8.0246 26.9901 8.25598C26.867 8.48244 26.8055 8.74583 26.8055 9.04614C26.8055 9.35137 26.867 9.61967 26.9901 9.85106C27.1181 10.0775 27.2855 10.2523 27.4922 10.3754C27.7039 10.4935 27.9328 10.5526 28.179 10.5526C28.4301 10.5526 28.659 10.4935 28.8658 10.3754C29.0775 10.2523 29.2448 10.0775 29.3679 9.85106C29.491 9.61967 29.5525 9.3489 29.5525 9.03875ZM34.8162 8.89844C34.8162 9.02644 34.8088 9.16183 34.794 9.3046H31.5595C31.5842 9.70337 31.7195 10.016 31.9657 10.2424C32.2168 10.464 32.5195 10.5748 32.874 10.5748C33.1645 10.5748 33.4057 10.5083 33.5977 10.3754C33.7946 10.2375 33.9325 10.0554 34.0112 9.8289H34.7349C34.6266 10.2178 34.41 10.5354 34.0851 10.7815C33.7602 11.0228 33.3565 11.1434 32.874 11.1434C32.49 11.1434 32.1454 11.0572 31.8402 10.8849C31.5398 10.7126 31.3035 10.4689 31.1312 10.1538C30.9589 9.83383 30.8728 9.4646 30.8728 9.04614C30.8728 8.62767 30.9565 8.2609 31.1238 7.94583C31.2912 7.63075 31.5251 7.38952 31.8254 7.22213C32.1306 7.04983 32.4802 6.96367 32.874 6.96367C33.258 6.96367 33.5977 7.04737 33.8931 7.21475C34.1885 7.38213 34.4149 7.61352 34.5725 7.9089C34.7349 8.19937 34.8162 8.52921 34.8162 8.89844ZM34.122 8.75813C34.122 8.50213 34.0654 8.28306 33.9522 8.1009C33.8389 7.91383 33.6838 7.77352 33.4869 7.67998C33.2949 7.58152 33.0808 7.53229 32.8445 7.53229C32.5048 7.53229 32.2143 7.6406 31.9731 7.85721C31.7368 8.07383 31.6014 8.37413 31.5669 8.75813H34.122ZM35.4521 9.04614C35.4521 8.62767 35.5358 8.26337 35.7032 7.95321C35.8706 7.63813 36.1019 7.39444 36.3973 7.22213C36.6976 7.04983 37.0398 6.96367 37.4238 6.96367C37.921 6.96367 38.3296 7.08429 38.6496 7.32552C38.9746 7.56675 39.1887 7.90152 39.2921 8.32983H38.5684C38.4995 8.08367 38.3641 7.88921 38.1623 7.74644C37.9653 7.60367 37.7192 7.53229 37.4238 7.53229C37.0398 7.53229 36.7296 7.66521 36.4933 7.93106C36.257 8.19198 36.1389 8.56367 36.1389 9.04614C36.1389 9.53352 36.257 9.91013 36.4933 10.176C36.7296 10.4418 37.0398 10.5748 37.4238 10.5748C37.7192 10.5748 37.9653 10.5058 38.1623 10.368C38.3592 10.2301 38.4946 10.0332 38.5684 9.77721H39.2921C39.1838 10.1908 38.9672 10.5231 38.6423 10.7741C38.3173 11.0203 37.9112 11.1434 37.4238 11.1434C37.0398 11.1434 36.6976 11.0572 36.3973 10.8849C36.1019 10.7126 35.8706 10.4689 35.7032 10.1538C35.5358 9.83875 35.4521 9.46952 35.4521 9.04614ZM41.0084 7.58398V9.96921C41.0084 10.1661 41.0503 10.3064 41.134 10.3901C41.2177 10.4689 41.3629 10.5083 41.5697 10.5083H42.0644V11.0769H41.4589C41.0848 11.0769 40.8041 10.9908 40.6171 10.8184C40.43 10.6461 40.3364 10.3631 40.3364 9.96921V7.58398H39.8121V7.03013H40.3364V6.01106H41.0084V7.03013H42.0644V7.58398H41.0084ZM43.5507 7.68737C43.6688 7.45598 43.8362 7.27629 44.0528 7.14829C44.2743 7.02029 44.5427 6.95629 44.8577 6.95629V7.65044H44.6805C43.9273 7.65044 43.5507 8.05906 43.5507 8.87629V11.0769H42.8787V7.03013H43.5507V7.68737ZM49.3258 8.89844C49.3258 9.02644 49.3184 9.16183 49.3036 9.3046H46.0692C46.0938 9.70337 46.2292 10.016 46.4753 10.2424C46.7264 10.464 47.0292 10.5748 47.3836 10.5748C47.6741 10.5748 47.9153 10.5083 48.1073 10.3754C48.3042 10.2375 48.4421 10.0554 48.5208 9.8289H49.2445C49.1362 10.2178 48.9196 10.5354 48.5947 10.7815C48.2698 11.0228 47.8661 11.1434 47.3836 11.1434C46.9996 11.1434 46.655 11.0572 46.3498 10.8849C46.0495 10.7126 45.8132 10.4689 45.6408 10.1538C45.4685 9.83383 45.3824 9.4646 45.3824 9.04614C45.3824 8.62767 45.4661 8.2609 45.6335 7.94583C45.8008 7.63075 46.0347 7.38952 46.335 7.22213C46.6402 7.04983 46.9898 6.96367 47.3836 6.96367C47.7676 6.96367 48.1073 7.04737 48.4027 7.21475C48.6981 7.38213 48.9245 7.61352 49.0821 7.9089C49.2445 8.19937 49.3258 8.52921 49.3258 8.89844ZM48.6316 8.75813C48.6316 8.50213 48.575 8.28306 48.4618 8.1009C48.3485 7.91383 48.1935 7.77352 47.9965 7.67998C47.8045 7.58152 47.5904 7.53229 47.3541 7.53229C47.0144 7.53229 46.7239 7.6406 46.4827 7.85721C46.2464 8.07383 46.111 8.37413 46.0765 8.75813H48.6316ZM55.224 9.93229H52.9791L52.5655 11.0769H51.8566L53.7175 5.95937H54.4929L56.3465 11.0769H55.6375L55.224 9.93229ZM55.032 9.38583L54.1015 6.78644L53.1711 9.38583H55.032ZM57.8295 5.92983V11.0769H57.1575V5.92983H57.8295Z" fill="url(#paint0_linear_809_5474)"/>
<circle cx="8.76923" cy="8.76923" r="8.664" fill="#1D1C25" stroke="url(#paint1_linear_809_5474)" stroke-width="0.210462"/>
<path d="M7.13381 12.2833C6.84769 11.7897 6.4624 11.3851 5.99867 11.0211C6.52632 11.0943 7.17219 11.8125 7.13381 12.2833ZM10.1542 12.2944C10.438 11.7965 10.8262 11.3907 11.2674 11.0317C10.7298 11.132 10.1446 11.7944 10.1542 12.2944ZM11.3586 6.50662C11.1556 6.17177 11.0226 5.84525 10.9285 5.46145C10.7647 5.79559 11.0501 6.41717 11.3586 6.50662ZM6.54326 5.49385C6.41125 5.81707 6.27013 6.16266 6.13346 6.49728C6.46782 6.33798 6.65965 5.80418 6.54326 5.49385ZM12.5033 8.6421C12.3885 10.5708 9.87177 10.8739 9.93894 12.6295C9.68465 12.4032 9.60788 12.08 9.70327 11.754C9.69768 11.752 9.69209 11.75 9.6865 11.748C9.49585 12.1273 9.38937 12.581 9.44867 13.0103C9.47098 13.1138 9.4135 13.0726 9.36679 13.022L9.36811 13.0236C9.26661 12.8323 9.18522 12.6077 9.17936 12.3873C9.17131 12.3871 9.16321 12.3869 9.15515 12.3867C8.99308 12.8867 8.94642 13.4368 8.71682 13.9069C8.59142 13.468 8.44356 13.0245 8.36134 12.5781C8.34228 12.5105 8.28624 12.3521 8.28122 12.3527C8.27612 12.3534 8.26511 12.5075 8.2608 12.5718C8.27713 12.7992 8.14217 12.9585 8.03327 13.1156C7.98498 12.7721 7.99836 12.4055 7.91455 12.0696L7.91561 12.0724C7.89875 12.0509 7.82326 11.9031 7.8042 11.8585C7.82577 12.1451 7.74319 12.4204 7.53301 12.6422C7.59776 11.304 6.12615 10.8209 5.45558 9.879C4.7413 8.89353 4.63346 7.23093 5.71049 6.4552C5.31459 7.07066 5.46698 7.79608 5.82604 8.38614C5.84272 8.40621 5.90544 8.47963 5.90808 8.41541C5.72 7.9894 5.7851 7.51762 6.03477 7.12863C6.66973 6.53144 6.8642 5.71843 6.99326 4.8548C7.49159 5.59822 7.25358 6.53364 6.83215 7.237C6.83268 7.2363 6.83303 7.23555 6.83356 7.23489C6.8222 7.25113 6.81846 7.27275 6.79945 7.28287C7.98701 6.6344 8.33431 4.91933 8.72845 3.68335C9.06818 4.80207 9.34813 5.93738 10.1108 6.86246C10.2865 7.02559 10.4794 7.16671 10.6607 7.31219C10.2545 6.58576 10.0061 5.67573 10.4205 4.87993C10.4383 4.88235 10.4561 4.88477 10.4739 4.88724C10.6116 5.63277 10.7249 6.48007 11.3251 6.99975C11.6344 7.3813 11.7201 7.8787 11.5822 8.34934C11.5683 8.37487 11.5783 8.40348 11.5712 8.43011C11.5905 8.4453 11.6092 8.38975 11.6285 8.39723C12.0102 7.80836 12.114 7.0733 11.7619 6.4486C12.4381 6.95172 12.6504 7.84709 12.5034 8.64206L12.5033 8.6421ZM9.46438 9.7937C9.4433 9.8165 9.43881 9.85466 9.42657 9.88565C9.98045 9.88697 10.6102 9.58985 10.8723 9.08752C10.966 8.88046 11.0978 8.60024 11.0101 8.37601C10.4136 8.75989 9.93322 9.26702 9.46434 9.79365L9.46438 9.7937ZM7.62853 7.57203C7.63513 7.58061 7.64173 7.58915 7.64829 7.59773C8.14913 7.32667 8.45527 6.86879 8.72849 6.39028C9.00893 6.8592 9.29658 7.31892 9.80033 7.58448C9.80618 7.57603 9.81208 7.56758 9.81793 7.55908C9.25279 7.07075 9.00765 6.35401 8.72734 5.68093C8.48731 6.37672 8.20058 7.07563 7.62848 7.57207L7.62853 7.57203ZM6.65071 9.1903C7.03402 9.74906 7.75204 9.91871 8.0735 9.88292C7.59586 9.30659 7.07799 8.737 6.41742 8.37958C6.39783 8.60077 6.44563 8.76438 6.65071 9.1903ZM11.4392 8.99917C11.4304 8.99587 11.4215 8.99253 11.4127 8.98923C10.51 10.992 9.15454 10.2322 8.71638 11.6823C8.08033 10.163 6.75182 10.8676 6.00757 8.99081C5.99528 8.99548 5.98305 9.00019 5.97077 9.0049C6.59564 11.3247 8.32661 10.0611 8.69402 12.4435C8.70384 12.4438 8.71361 12.4441 8.72343 12.4444C8.73051 12.3706 8.73756 12.2967 8.74464 12.2229C9.08838 10.1629 10.7953 11.3124 11.4393 8.99913L11.4392 8.99917Z" fill="url(#paint2_linear_809_5474)"/>
<defs>
<linearGradient id="paint0_linear_809_5474" x1="64.6153" y1="5.0769" x2="24.923" y2="9.23075" gradientUnits="userSpaceOnUse">
<stop stop-color="#917EFE"/>
<stop offset="1" stop-color="white"/>
</linearGradient>
<linearGradient id="paint1_linear_809_5474" x1="1.27154" y1="-3.41086e-08" x2="19.2698" y2="12.318" gradientUnits="userSpaceOnUse">
<stop stop-color="#917EFE"/>
<stop offset="1" stop-color="white"/>
</linearGradient>
<linearGradient id="paint2_linear_809_5474" x1="8.72891" y1="3.68335" x2="8.73354" y2="12.1369" gradientUnits="userSpaceOnUse">
<stop stop-color="#917EFE"/>
<stop offset="1" stop-color="white"/>
</linearGradient>
</defs>
</svg>
