<svg width="296" height="64" viewBox="0 0 296 64" fill="none" xmlns="http://www.w3.org/2000/svg">
<rect x="0.524414" width="294.82" height="64" rx="32" fill="#25232E"/>
<g clip-path="url(#clip0_1105_3109)">
<circle cx="32" cy="32" r="31.616" fill="#1D1C25" stroke="url(#paint0_linear_1105_3109)" stroke-width="0.768"/>
<path d="M26.0363 44.8216C24.9922 43.0206 23.5862 41.5442 21.894 40.2159C23.8194 40.4831 26.1763 43.1038 26.0363 44.8216ZM37.0581 44.8624C38.0937 43.0452 39.5103 41.5644 41.1204 40.2547C39.1583 40.6204 37.0231 43.0378 37.0581 44.8624ZM41.4531 23.7419C40.7122 22.52 40.2268 21.3285 39.8837 19.928C39.2859 21.1473 40.3274 23.4155 41.4531 23.7419ZM23.8813 20.0462C23.3996 21.2257 22.8846 22.4868 22.3858 23.7078C23.606 23.1265 24.306 21.1786 23.8813 20.0462ZM45.6302 31.5345C45.2114 38.5727 36.0274 39.6788 36.2725 46.0849C35.3446 45.2593 35.0644 44.08 35.4125 42.8902C35.3921 42.883 35.3717 42.8758 35.3513 42.8685C34.6556 44.2523 34.2671 45.9082 34.4835 47.4747C34.5649 47.8523 34.3551 47.7021 34.1847 47.5174L34.1895 47.5233C33.8191 46.8249 33.5221 46.0056 33.5007 45.2013C33.4713 45.2005 33.4418 45.1999 33.4124 45.1991C32.821 47.0238 32.6507 49.031 31.8129 50.7463C31.3552 49.1447 30.8157 47.5264 30.5157 45.8976C30.4461 45.6507 30.2416 45.0728 30.2233 45.0751C30.2047 45.0775 30.1645 45.6398 30.1488 45.8743C30.2084 46.7043 29.7159 47.2856 29.3185 47.8587C29.1423 46.6055 29.1911 45.2675 28.8853 44.0417L28.8891 44.052C28.8276 43.9736 28.5522 43.4343 28.4826 43.2717C28.5613 44.3174 28.26 45.3219 27.493 46.1315C27.7293 41.248 22.3592 39.4853 19.9122 36.0482C17.3057 32.452 16.9122 26.385 20.8424 23.5543C19.3977 25.8002 19.9538 28.4473 21.264 30.6005C21.3249 30.6737 21.5538 30.9417 21.5634 30.7073C20.8771 29.1528 21.1146 27.4312 22.0257 26.0117C24.3428 23.8325 25.0524 20.8657 25.5234 17.7142C27.3418 20.427 26.4733 23.8405 24.9355 26.4072C24.9374 26.4046 24.9387 26.4019 24.9406 26.3995C24.8992 26.4587 24.8855 26.5376 24.8161 26.5745C29.1497 24.2082 30.417 17.9497 31.8553 13.4395C33.095 17.5218 34.1166 21.6647 36.8996 25.0404C37.5408 25.6357 38.2449 26.1507 38.9062 26.6815C37.4239 24.0307 36.5175 20.7099 38.0298 17.8059C38.0947 17.8148 38.1597 17.8236 38.2246 17.8326C38.7271 20.5531 39.1407 23.645 41.331 25.5414C42.4594 26.9337 42.7721 28.7488 42.269 30.4662C42.2181 30.5594 42.2549 30.6638 42.2289 30.761C42.2994 30.8164 42.3675 30.6137 42.4379 30.641C43.8308 28.4921 44.2096 25.8098 42.9249 23.5302C45.3924 25.3662 46.1671 28.6335 45.6305 31.5344L45.6302 31.5345ZM34.5408 35.7369C34.4639 35.8201 34.4475 35.9593 34.4028 36.0724C36.424 36.0772 38.7221 34.993 39.6784 33.1599C40.0204 32.4043 40.5013 31.3818 40.1812 30.5636C38.0047 31.9644 36.2516 33.815 34.5406 35.7367L34.5408 35.7369ZM27.8415 27.6297C27.8656 27.661 27.8897 27.6922 27.9137 27.7235C29.7413 26.7344 30.8584 25.0635 31.8554 23.3174C32.8788 25.0285 33.9285 26.7061 35.7667 27.6752C35.7881 27.6443 35.8096 27.6135 35.831 27.5825C33.7687 25.8005 32.8741 23.185 31.8513 20.7289C30.9754 23.2679 29.929 25.8183 27.8414 27.6299L27.8415 27.6297ZM24.2734 33.535C25.6721 35.574 28.2923 36.193 29.4653 36.0625C27.7224 33.9594 25.8326 31.8809 23.4221 30.5766C23.3506 31.3837 23.525 31.9808 24.2734 33.535ZM41.7473 32.8375C41.715 32.8255 41.6828 32.8133 41.6505 32.8012C38.3563 40.1096 33.4101 37.3369 31.8113 42.6286C29.4902 37.0844 24.6423 39.6555 21.9265 32.807C21.8816 32.8241 21.837 32.8412 21.7922 32.8584C24.0724 41.3238 30.3889 36.7127 31.7297 45.4063C31.7655 45.4074 31.8011 45.4085 31.837 45.4095C31.8628 45.1401 31.8885 44.8706 31.9144 44.6014C33.1687 37.084 39.3975 41.279 41.7475 32.8374L41.7473 32.8375Z" fill="url(#paint1_linear_1105_3109)"/>
</g>
<circle cx="85" cy="18.5" r="3" fill="#3ABF38"/>
<path d="M98.67 23.154C97.9607 23.154 97.298 23.028 96.682 22.776C96.0753 22.5147 95.5387 22.1553 95.072 21.698C94.6147 21.2313 94.2553 20.6947 93.994 20.088C93.742 19.472 93.616 18.8093 93.616 18.1C93.616 17.3907 93.742 16.7327 93.994 16.126C94.2553 15.51 94.6147 14.9733 95.072 14.516C95.5387 14.0493 96.0753 13.69 96.682 13.438C97.298 13.1767 97.9607 13.046 98.67 13.046C99.37 13.046 100.023 13.1767 100.63 13.438C101.246 13.69 101.783 14.0493 102.24 14.516C102.707 14.9733 103.066 15.51 103.318 16.126C103.579 16.7327 103.71 17.3907 103.71 18.1C103.71 18.8093 103.579 19.472 103.318 20.088C103.066 20.6947 102.707 21.2313 102.24 21.698C101.783 22.1553 101.246 22.5147 100.63 22.776C100.023 23.028 99.37 23.154 98.67 23.154ZM98.67 22.16C99.23 22.16 99.748 22.0573 100.224 21.852C100.7 21.6467 101.115 21.362 101.47 20.998C101.834 20.6247 102.114 20.1907 102.31 19.696C102.515 19.2013 102.618 18.6693 102.618 18.1C102.618 17.5213 102.515 16.9893 102.31 16.504C102.114 16.0093 101.834 15.58 101.47 15.216C101.115 14.8427 100.7 14.5533 100.224 14.348C99.748 14.1427 99.23 14.04 98.67 14.04C98.11 14.04 97.5873 14.1427 97.102 14.348C96.626 14.5533 96.206 14.8427 95.842 15.216C95.4873 15.58 95.2073 16.0093 95.002 16.504C94.806 16.9893 94.708 17.5167 94.708 18.086C94.708 18.6647 94.806 19.2013 95.002 19.696C95.2073 20.1907 95.4873 20.6247 95.842 20.998C96.206 21.362 96.626 21.6467 97.102 21.852C97.5873 22.0573 98.11 22.16 98.67 22.16ZM105.202 23V15.986H106.238V16.812C106.789 16.168 107.526 15.846 108.45 15.846C108.982 15.846 109.449 15.9627 109.85 16.196C110.261 16.42 110.578 16.7373 110.802 17.148C111.036 17.5493 111.152 18.0207 111.152 18.562V23H110.13V18.772C110.13 18.1467 109.953 17.6567 109.598 17.302C109.253 16.938 108.777 16.756 108.17 16.756C107.75 16.756 107.377 16.8493 107.05 17.036C106.724 17.2227 106.453 17.4887 106.238 17.834V23H105.202ZM112.886 23V13.2L113.922 12.962V23H112.886ZM115.689 23V15.986H116.725V23H115.689ZM116.207 14.642C116.02 14.642 115.857 14.572 115.717 14.432C115.577 14.292 115.507 14.1287 115.507 13.942C115.507 13.746 115.577 13.5827 115.717 13.452C115.857 13.312 116.02 13.242 116.207 13.242C116.403 13.242 116.566 13.312 116.697 13.452C116.837 13.5827 116.907 13.746 116.907 13.942C116.907 14.1287 116.837 14.292 116.697 14.432C116.566 14.572 116.403 14.642 116.207 14.642ZM118.491 23V15.986H119.527V16.812C120.078 16.168 120.815 15.846 121.739 15.846C122.271 15.846 122.738 15.9627 123.139 16.196C123.55 16.42 123.867 16.7373 124.091 17.148C124.325 17.5493 124.441 18.0207 124.441 18.562V23H123.419V18.772C123.419 18.1467 123.242 17.6567 122.887 17.302C122.542 16.938 122.066 16.756 121.459 16.756C121.039 16.756 120.666 16.8493 120.339 17.036C120.013 17.2227 119.742 17.4887 119.527 17.834V23H118.491ZM129.465 23.126C128.793 23.126 128.182 22.9673 127.631 22.65C127.09 22.3233 126.656 21.8847 126.329 21.334C126.012 20.7833 125.853 20.1673 125.853 19.486C125.853 18.814 126.007 18.2073 126.315 17.666C126.623 17.1153 127.038 16.6813 127.561 16.364C128.084 16.0373 128.667 15.874 129.311 15.874C129.936 15.874 130.496 16.0373 130.991 16.364C131.495 16.6813 131.892 17.1153 132.181 17.666C132.48 18.2073 132.629 18.814 132.629 19.486V19.808H126.875C126.931 20.2653 127.076 20.676 127.309 21.04C127.552 21.404 127.864 21.6933 128.247 21.908C128.63 22.1133 129.05 22.216 129.507 22.216C129.871 22.216 130.226 22.16 130.571 22.048C130.916 21.936 131.206 21.7773 131.439 21.572L132.083 22.258C131.691 22.5473 131.28 22.7667 130.851 22.916C130.431 23.056 129.969 23.126 129.465 23.126ZM126.903 18.982H131.593C131.537 18.562 131.397 18.1887 131.173 17.862C130.958 17.526 130.688 17.2647 130.361 17.078C130.034 16.882 129.675 16.784 129.283 16.784C128.882 16.784 128.513 16.8773 128.177 17.064C127.841 17.2507 127.561 17.512 127.337 17.848C127.113 18.1747 126.968 18.5527 126.903 18.982Z" fill="#3ABF38"/>
<path d="M88.258 48.147C87.292 48.147 86.424 47.979 85.654 47.643C84.898 47.293 84.303 46.817 83.869 46.215C83.435 45.599 83.211 44.892 83.197 44.094H85.234C85.304 44.78 85.584 45.361 86.074 45.837C86.578 46.299 87.306 46.53 88.258 46.53C89.168 46.53 89.882 46.306 90.4 45.858C90.932 45.396 91.198 44.808 91.198 44.094C91.198 43.534 91.044 43.079 90.736 42.729C90.428 42.379 90.043 42.113 89.581 41.931C89.119 41.749 88.496 41.553 87.712 41.343C86.746 41.091 85.969 40.839 85.381 40.587C84.807 40.335 84.31 39.943 83.89 39.411C83.484 38.865 83.281 38.137 83.281 37.227C83.281 36.429 83.484 35.722 83.89 35.106C84.296 34.49 84.863 34.014 85.591 33.678C86.333 33.342 87.18 33.174 88.132 33.174C89.504 33.174 90.624 33.517 91.492 34.203C92.374 34.889 92.871 35.799 92.983 36.933H90.883C90.813 36.373 90.519 35.883 90.001 35.463C89.483 35.029 88.797 34.812 87.943 34.812C87.145 34.812 86.494 35.022 85.99 35.442C85.486 35.848 85.234 36.422 85.234 37.164C85.234 37.696 85.381 38.13 85.675 38.466C85.983 38.802 86.354 39.061 86.788 39.243C87.236 39.411 87.859 39.607 88.657 39.831C89.623 40.097 90.4 40.363 90.988 40.629C91.576 40.881 92.08 41.28 92.5 41.826C92.92 42.358 93.13 43.086 93.13 44.01C93.13 44.724 92.941 45.396 92.563 46.026C92.185 46.656 91.625 47.167 90.883 47.559C90.141 47.951 89.266 48.147 88.258 48.147ZM97.8532 38.613C98.2312 37.955 98.7912 37.409 99.5332 36.975C100.289 36.527 101.164 36.303 102.158 36.303C103.18 36.303 104.104 36.548 104.93 37.038C105.77 37.528 106.428 38.221 106.904 39.117C107.38 39.999 107.618 41.028 107.618 42.204C107.618 43.366 107.38 44.402 106.904 45.312C106.428 46.222 105.77 46.929 104.93 47.433C104.104 47.937 103.18 48.189 102.158 48.189C101.178 48.189 100.31 47.972 99.5542 47.538C98.8122 47.09 98.2452 46.537 97.8532 45.879V53.46H95.9422V36.492H97.8532V38.613ZM105.665 42.204C105.665 41.336 105.49 40.58 105.14 39.936C104.79 39.292 104.314 38.802 103.712 38.466C103.124 38.13 102.473 37.962 101.759 37.962C101.059 37.962 100.408 38.137 99.8062 38.487C99.2182 38.823 98.7422 39.32 98.3782 39.978C98.0282 40.622 97.8532 41.371 97.8532 42.225C97.8532 43.093 98.0282 43.856 98.3782 44.514C98.7422 45.158 99.2182 45.655 99.8062 46.005C100.408 46.341 101.059 46.509 101.759 46.509C102.473 46.509 103.124 46.341 103.712 46.005C104.314 45.655 104.79 45.158 105.14 44.514C105.49 43.856 105.665 43.086 105.665 42.204ZM120.634 41.805C120.634 42.169 120.613 42.554 120.571 42.96H111.373C111.443 44.094 111.828 44.983 112.528 45.627C113.242 46.257 114.103 46.572 115.111 46.572C115.937 46.572 116.623 46.383 117.169 46.005C117.729 45.613 118.121 45.095 118.345 44.451H120.403C120.095 45.557 119.479 46.46 118.555 47.16C117.631 47.846 116.483 48.189 115.111 48.189C114.019 48.189 113.039 47.944 112.171 47.454C111.317 46.964 110.645 46.271 110.155 45.375C109.665 44.465 109.42 43.415 109.42 42.225C109.42 41.035 109.658 39.992 110.134 39.096C110.61 38.2 111.275 37.514 112.129 37.038C112.997 36.548 113.991 36.303 115.111 36.303C116.203 36.303 117.169 36.541 118.009 37.017C118.849 37.493 119.493 38.151 119.941 38.991C120.403 39.817 120.634 40.755 120.634 41.805ZM118.66 41.406C118.66 40.678 118.499 40.055 118.177 39.537C117.855 39.005 117.414 38.606 116.854 38.34C116.308 38.06 115.699 37.92 115.027 37.92C114.061 37.92 113.235 38.228 112.549 38.844C111.877 39.46 111.492 40.314 111.394 41.406H118.66ZM122.442 42.225C122.442 41.035 122.68 39.999 123.156 39.117C123.632 38.221 124.29 37.528 125.13 37.038C125.984 36.548 126.957 36.303 128.049 36.303C129.463 36.303 130.625 36.646 131.535 37.332C132.459 38.018 133.068 38.97 133.362 40.188H131.304C131.108 39.488 130.723 38.935 130.149 38.529C129.589 38.123 128.889 37.92 128.049 37.92C126.957 37.92 126.075 38.298 125.403 39.054C124.731 39.796 124.395 40.853 124.395 42.225C124.395 43.611 124.731 44.682 125.403 45.438C126.075 46.194 126.957 46.572 128.049 46.572C128.889 46.572 129.589 46.376 130.149 45.984C130.709 45.592 131.094 45.032 131.304 44.304H133.362C133.054 45.48 132.438 46.425 131.514 47.139C130.59 47.839 129.435 48.189 128.049 48.189C126.957 48.189 125.984 47.944 125.13 47.454C124.29 46.964 123.632 46.271 123.156 45.375C122.68 44.479 122.442 43.429 122.442 42.225ZM138.243 38.067V44.85C138.243 45.41 138.362 45.809 138.6 46.047C138.838 46.271 139.251 46.383 139.839 46.383H141.246V48H139.524C138.46 48 137.662 47.755 137.13 47.265C136.598 46.775 136.332 45.97 136.332 44.85V38.067H134.841V36.492H136.332V33.594H138.243V36.492H141.246V38.067H138.243ZM145.472 38.361C145.808 37.703 146.284 37.192 146.9 36.828C147.53 36.464 148.293 36.282 149.189 36.282V38.256H148.685C146.543 38.256 145.472 39.418 145.472 41.742V48H143.561V36.492H145.472V38.361ZM161.895 41.805C161.895 42.169 161.874 42.554 161.832 42.96H152.634C152.704 44.094 153.089 44.983 153.789 45.627C154.503 46.257 155.364 46.572 156.372 46.572C157.198 46.572 157.884 46.383 158.43 46.005C158.99 45.613 159.382 45.095 159.606 44.451H161.664C161.356 45.557 160.74 46.46 159.816 47.16C158.892 47.846 157.744 48.189 156.372 48.189C155.28 48.189 154.3 47.944 153.432 47.454C152.578 46.964 151.906 46.271 151.416 45.375C150.926 44.465 150.681 43.415 150.681 42.225C150.681 41.035 150.919 39.992 151.395 39.096C151.871 38.2 152.536 37.514 153.39 37.038C154.258 36.548 155.252 36.303 156.372 36.303C157.464 36.303 158.43 36.541 159.27 37.017C160.11 37.493 160.754 38.151 161.202 38.991C161.664 39.817 161.895 40.755 161.895 41.805ZM159.921 41.406C159.921 40.678 159.76 40.055 159.438 39.537C159.116 39.005 158.675 38.606 158.115 38.34C157.569 38.06 156.96 37.92 156.288 37.92C155.322 37.92 154.496 38.228 153.81 38.844C153.138 39.46 152.753 40.314 152.655 41.406H159.921ZM178.668 44.745H172.284L171.108 48H169.092L174.384 33.447H176.589L181.86 48H179.844L178.668 44.745ZM178.122 43.191L175.476 35.799L172.83 43.191H178.122ZM188.241 48.189C187.359 48.189 186.568 48.042 185.868 47.748C185.168 47.44 184.615 47.02 184.209 46.488C183.803 45.942 183.579 45.319 183.537 44.619H185.511C185.567 45.193 185.833 45.662 186.309 46.026C186.799 46.39 187.436 46.572 188.22 46.572C188.948 46.572 189.522 46.411 189.942 46.089C190.362 45.767 190.572 45.361 190.572 44.871C190.572 44.367 190.348 43.996 189.9 43.758C189.452 43.506 188.759 43.261 187.821 43.023C186.967 42.799 186.267 42.575 185.721 42.351C185.189 42.113 184.727 41.77 184.335 41.322C183.957 40.86 183.768 40.258 183.768 39.516C183.768 38.928 183.943 38.389 184.293 37.899C184.643 37.409 185.14 37.024 185.784 36.744C186.428 36.45 187.163 36.303 187.989 36.303C189.263 36.303 190.292 36.625 191.076 37.269C191.86 37.913 192.28 38.795 192.336 39.915H190.425C190.383 39.313 190.138 38.83 189.69 38.466C189.256 38.102 188.668 37.92 187.926 37.92C187.24 37.92 186.694 38.067 186.288 38.361C185.882 38.655 185.679 39.04 185.679 39.516C185.679 39.894 185.798 40.209 186.036 40.461C186.288 40.699 186.596 40.895 186.96 41.049C187.338 41.189 187.856 41.35 188.514 41.532C189.34 41.756 190.012 41.98 190.53 42.204C191.048 42.414 191.489 42.736 191.853 43.17C192.231 43.604 192.427 44.171 192.441 44.871C192.441 45.501 192.266 46.068 191.916 46.572C191.566 47.076 191.069 47.475 190.425 47.769C189.795 48.049 189.067 48.189 188.241 48.189ZM199.212 48.189C198.33 48.189 197.539 48.042 196.839 47.748C196.139 47.44 195.586 47.02 195.18 46.488C194.774 45.942 194.55 45.319 194.508 44.619H196.482C196.538 45.193 196.804 45.662 197.28 46.026C197.77 46.39 198.407 46.572 199.191 46.572C199.919 46.572 200.493 46.411 200.913 46.089C201.333 45.767 201.543 45.361 201.543 44.871C201.543 44.367 201.319 43.996 200.871 43.758C200.423 43.506 199.73 43.261 198.792 43.023C197.938 42.799 197.238 42.575 196.692 42.351C196.16 42.113 195.698 41.77 195.306 41.322C194.928 40.86 194.739 40.258 194.739 39.516C194.739 38.928 194.914 38.389 195.264 37.899C195.614 37.409 196.111 37.024 196.755 36.744C197.399 36.45 198.134 36.303 198.96 36.303C200.234 36.303 201.263 36.625 202.047 37.269C202.831 37.913 203.251 38.795 203.307 39.915H201.396C201.354 39.313 201.109 38.83 200.661 38.466C200.227 38.102 199.639 37.92 198.897 37.92C198.211 37.92 197.665 38.067 197.259 38.361C196.853 38.655 196.65 39.04 196.65 39.516C196.65 39.894 196.769 40.209 197.007 40.461C197.259 40.699 197.567 40.895 197.931 41.049C198.309 41.189 198.827 41.35 199.485 41.532C200.311 41.756 200.983 41.98 201.501 42.204C202.019 42.414 202.46 42.736 202.824 43.17C203.202 43.604 203.398 44.171 203.412 44.871C203.412 45.501 203.237 46.068 202.887 46.572C202.537 47.076 202.04 47.475 201.396 47.769C200.766 48.049 200.038 48.189 199.212 48.189ZM207.097 34.623C206.733 34.623 206.425 34.497 206.173 34.245C205.921 33.993 205.795 33.685 205.795 33.321C205.795 32.957 205.921 32.649 206.173 32.397C206.425 32.145 206.733 32.019 207.097 32.019C207.447 32.019 207.741 32.145 207.979 32.397C208.231 32.649 208.357 32.957 208.357 33.321C208.357 33.685 208.231 33.993 207.979 34.245C207.741 34.497 207.447 34.623 207.097 34.623ZM208.021 36.492V48H206.11V36.492H208.021ZM215.352 48.189C214.47 48.189 213.679 48.042 212.979 47.748C212.279 47.44 211.726 47.02 211.32 46.488C210.914 45.942 210.69 45.319 210.648 44.619H212.622C212.678 45.193 212.944 45.662 213.42 46.026C213.91 46.39 214.547 46.572 215.331 46.572C216.059 46.572 216.633 46.411 217.053 46.089C217.473 45.767 217.683 45.361 217.683 44.871C217.683 44.367 217.459 43.996 217.011 43.758C216.563 43.506 215.87 43.261 214.932 43.023C214.078 42.799 213.378 42.575 212.832 42.351C212.3 42.113 211.838 41.77 211.446 41.322C211.068 40.86 210.879 40.258 210.879 39.516C210.879 38.928 211.054 38.389 211.404 37.899C211.754 37.409 212.251 37.024 212.895 36.744C213.539 36.45 214.274 36.303 215.1 36.303C216.374 36.303 217.403 36.625 218.187 37.269C218.971 37.913 219.391 38.795 219.447 39.915H217.536C217.494 39.313 217.249 38.83 216.801 38.466C216.367 38.102 215.779 37.92 215.037 37.92C214.351 37.92 213.805 38.067 213.399 38.361C212.993 38.655 212.79 39.04 212.79 39.516C212.79 39.894 212.909 40.209 213.147 40.461C213.399 40.699 213.707 40.895 214.071 41.049C214.449 41.189 214.967 41.35 215.625 41.532C216.451 41.756 217.123 41.98 217.641 42.204C218.159 42.414 218.6 42.736 218.964 43.17C219.342 43.604 219.538 44.171 219.552 44.871C219.552 45.501 219.377 46.068 219.027 46.572C218.677 47.076 218.18 47.475 217.536 47.769C216.906 48.049 216.178 48.189 215.352 48.189ZM224.581 38.067V44.85C224.581 45.41 224.7 45.809 224.938 46.047C225.176 46.271 225.589 46.383 226.177 46.383H227.584V48H225.862C224.798 48 224 47.755 223.468 47.265C222.936 46.775 222.67 45.97 222.67 44.85V38.067H221.179V36.492H222.67V33.594H224.581V36.492H227.584V38.067H224.581ZM229.185 42.204C229.185 41.028 229.423 39.999 229.899 39.117C230.375 38.221 231.026 37.528 231.852 37.038C232.692 36.548 233.623 36.303 234.645 36.303C235.653 36.303 236.528 36.52 237.27 36.954C238.012 37.388 238.565 37.934 238.929 38.592V36.492H240.861V48H238.929V45.858C238.551 46.53 237.984 47.09 237.228 47.538C236.486 47.972 235.618 48.189 234.624 48.189C233.602 48.189 232.678 47.937 231.852 47.433C231.026 46.929 230.375 46.222 229.899 45.312C229.423 44.402 229.185 43.366 229.185 42.204ZM238.929 42.225C238.929 41.357 238.754 40.601 238.404 39.957C238.054 39.313 237.578 38.823 236.976 38.487C236.388 38.137 235.737 37.962 235.023 37.962C234.309 37.962 233.658 38.13 233.07 38.466C232.482 38.802 232.013 39.292 231.663 39.936C231.313 40.58 231.138 41.336 231.138 42.204C231.138 43.086 231.313 43.856 231.663 44.514C232.013 45.158 232.482 45.655 233.07 46.005C233.658 46.341 234.309 46.509 235.023 46.509C235.737 46.509 236.388 46.341 236.976 46.005C237.578 45.655 238.054 45.158 238.404 44.514C238.754 43.856 238.929 43.093 238.929 42.225ZM249.698 36.282C251.098 36.282 252.232 36.709 253.1 37.563C253.968 38.403 254.402 39.621 254.402 41.217V48H252.512V41.49C252.512 40.342 252.225 39.467 251.651 38.865C251.077 38.249 250.293 37.941 249.299 37.941C248.291 37.941 247.486 38.256 246.884 38.886C246.296 39.516 246.002 40.433 246.002 41.637V48H244.091V36.492H246.002V38.13C246.38 37.542 246.891 37.087 247.535 36.765C248.193 36.443 248.914 36.282 249.698 36.282ZM259.854 38.067V44.85C259.854 45.41 259.973 45.809 260.211 46.047C260.449 46.271 260.862 46.383 261.45 46.383H262.857V48H261.135C260.071 48 259.273 47.755 258.741 47.265C258.209 46.775 257.943 45.97 257.943 44.85V38.067H256.452V36.492H257.943V33.594H259.854V36.492H262.857V38.067H259.854Z" fill="url(#paint2_linear_1105_3109)"/>
<defs>
<linearGradient id="paint0_linear_1105_3109" x1="4.64" y1="-1.24467e-07" x2="70.3179" y2="44.9498" gradientUnits="userSpaceOnUse">
<stop stop-color="#917EFE"/>
<stop offset="1" stop-color="white"/>
</linearGradient>
<linearGradient id="paint1_linear_1105_3109" x1="31.857" y1="13.4395" x2="31.8739" y2="44.2875" gradientUnits="userSpaceOnUse">
<stop stop-color="#917EFE"/>
<stop offset="1" stop-color="white"/>
</linearGradient>
<linearGradient id="paint2_linear_1105_3109" x1="284.376" y1="30" x2="106.239" y2="70.1358" gradientUnits="userSpaceOnUse">
<stop stop-color="#917EFE"/>
<stop offset="1" stop-color="white"/>
</linearGradient>
<clipPath id="clip0_1105_3109">
<rect width="64" height="64" fill="white"/>
</clipPath>
</defs>
</svg>
