<svg width="49" height="49" viewBox="0 0 49 49" fill="none" xmlns="http://www.w3.org/2000/svg">
<g opacity="0.3">
<path d="M24.1958 46.9398C27.1488 46.9436 30.0734 46.3638 32.8016 45.2337C35.5298 44.1036 38.0078 42.4455 40.0931 40.3547C42.184 38.2694 43.8421 35.7914 44.9722 33.0632C46.1023 30.335 46.6821 27.4104 46.6782 24.4574C46.682 21.5044 46.1022 18.5798 44.9721 15.8516C43.842 13.1234 42.1839 10.6454 40.0931 8.56006C38.0078 6.46923 35.5298 4.81112 32.8016 3.68103C30.0734 2.55093 27.1488 1.97114 24.1958 1.97496C21.2428 1.9712 18.3182 2.55102 15.59 3.68111C12.8618 4.8112 10.3839 6.46928 8.2985 8.56006C6.20771 10.6454 4.54964 13.1234 3.41955 15.8516C2.28946 18.5798 1.70963 21.5044 1.7134 24.4574C1.70957 27.4104 2.28937 30.335 3.41946 33.0632C4.54955 35.7914 6.20766 38.2694 8.2985 40.3547C10.3839 42.4455 12.8618 44.1036 15.59 45.2337C18.3182 46.3637 21.2428 46.9436 24.1958 46.9398Z" stroke="#C7C7D7" stroke-opacity="0.8" stroke-width="2.99766" stroke-linejoin="round"/>
<path d="M33.6142 16.0532C33.4832 15.922 33.3277 15.8179 33.1564 15.7468C32.9852 15.6758 32.8016 15.6392 32.6162 15.6392C32.4308 15.6392 32.2472 15.6758 32.076 15.7468C31.9048 15.8179 31.7492 15.922 31.6182 16.0532L24.6962 22.9611L17.7741 16.039C17.643 15.908 17.4874 15.804 17.3162 15.7331C17.145 15.6622 16.9614 15.6257 16.7761 15.6257C16.5907 15.6257 16.4072 15.6622 16.236 15.7331C16.0648 15.804 15.9092 15.908 15.7781 16.039C15.6471 16.1701 15.5431 16.3257 15.4722 16.4969C15.4013 16.6681 15.3647 16.8517 15.3647 17.037C15.3647 17.2224 15.4013 17.4059 15.4722 17.5771C15.5431 17.7483 15.6471 17.9039 15.7781 18.035L22.7002 24.9571L15.7781 31.8792C15.6471 32.0102 15.5431 32.1658 15.4722 32.337C15.4013 32.5083 15.3647 32.6918 15.3647 32.8771C15.3647 33.0625 15.4013 33.246 15.4722 33.4172C15.5431 33.5885 15.6471 33.7441 15.7781 33.8751C15.9092 34.0062 16.0648 34.1101 16.236 34.181C16.4072 34.252 16.5907 34.2885 16.7761 34.2885C16.9614 34.2885 17.145 34.252 17.3162 34.181C17.4874 34.1101 17.643 34.0062 17.7741 33.8751L24.6962 26.953L31.6182 33.8751C31.7493 34.0062 31.9049 34.1101 32.0761 34.181C32.2473 34.252 32.4309 34.2885 32.6162 34.2885C32.8016 34.2885 32.9851 34.252 33.1563 34.181C33.3275 34.1101 33.4831 34.0062 33.6142 33.8751C33.7452 33.7441 33.8492 33.5885 33.9201 33.4172C33.9911 33.246 34.0276 33.0625 34.0276 32.8771C34.0276 32.6918 33.9911 32.5083 33.9201 32.337C33.8492 32.1658 33.7452 32.0102 33.6142 31.8792L26.6921 24.9571L33.6142 18.035C34.1521 17.4971 34.1521 16.5911 33.6142 16.0532Z" fill="#C7C7D7"/>
</g>
</svg>
