<svg width="17" height="17" viewBox="0 0 17 17" fill="none" xmlns="http://www.w3.org/2000/svg">
<path d="M8.50001 16C9.48511 16.0013 10.4607 15.8079 11.3709 15.4309C12.281 15.0539 13.1076 14.5007 13.8033 13.8033C14.5007 13.1076 15.0539 12.281 15.4309 11.3709C15.8079 10.4607 16.0013 9.48511 16 8.50001C16.0013 7.51491 15.8078 6.53927 15.4308 5.62917C15.0539 4.71906 14.5007 3.89242 13.8033 3.19676C13.1076 2.49927 12.281 1.94613 11.3709 1.56914C10.4607 1.19215 9.48511 0.99873 8.50001 1.00001C7.51491 0.99875 6.53927 1.19218 5.62917 1.56917C4.71906 1.94616 3.89242 2.49928 3.19676 3.19676C2.49928 3.89242 1.94616 4.71906 1.56917 5.62917C1.19218 6.53927 0.99875 7.51491 1.00001 8.50001C0.99873 9.48511 1.19215 10.4607 1.56914 11.3709C1.94613 12.281 2.49927 13.1076 3.19676 13.8033C3.89242 14.5007 4.71906 15.0539 5.62917 15.4308C6.53927 15.8078 7.51491 16.0013 8.50001 16Z" fill="white" fill-opacity="0.15" stroke="#FE7EF1" stroke-linejoin="round"/>
</svg>
