<svg width="86" height="87" viewBox="0 0 86 87" fill="none" xmlns="http://www.w3.org/2000/svg">
<path d="M43 6.3252C35.5585 6.3252 28.2841 8.53186 22.0967 12.6662C15.9093 16.8004 11.0868 22.6767 8.23905 29.5517C5.3913 36.4268 4.6462 43.9919 6.09797 51.2905C7.54974 58.589 11.1332 65.2931 16.3951 70.5551C21.6571 75.817 28.3612 79.4005 35.6597 80.8522C42.9583 82.304 50.5234 81.5589 57.3985 78.7112C64.2736 75.8634 70.1498 71.0409 74.2841 64.8535C78.4184 58.6661 80.625 51.3917 80.625 43.9502C80.625 33.9714 76.661 24.4014 69.6049 17.3453C62.5489 10.2892 52.9788 6.3252 43 6.3252ZM63.0138 46.3555L30.7638 62.4805C30.354 62.6853 29.8986 62.7819 29.4409 62.7612C28.9832 62.7405 28.5385 62.6031 28.1488 62.3621C27.7592 62.1211 27.4376 61.7845 27.2147 61.3842C26.9917 60.984 26.8748 60.5333 26.875 60.0752V27.8252C26.8753 27.3673 26.9925 26.917 27.2156 26.5171C27.4388 26.1172 27.7604 25.781 28.15 25.5403C28.5395 25.2996 28.9841 25.1625 29.4416 25.1419C29.8991 25.1212 30.3542 25.2179 30.7638 25.4226L63.0138 41.5476C63.4596 41.771 63.8345 42.1141 64.0964 42.5384C64.3584 42.9627 64.4972 43.4515 64.4972 43.9502C64.4972 44.4489 64.3584 44.9377 64.0964 45.362C63.8345 45.7863 63.4596 46.1294 63.0138 46.3528" fill="url(#paint0_linear_1355_5069)"/>
<defs>
<linearGradient id="paint0_linear_1355_5069" x1="43" y1="6.3252" x2="43" y2="81.5752" gradientUnits="userSpaceOnUse">
<stop stop-color="#917EFE"/>
<stop offset="1" stop-color="white"/>
</linearGradient>
</defs>
</svg>
