<svg width="20" height="23" viewBox="0 0 20 23" fill="none" xmlns="http://www.w3.org/2000/svg">
<path d="M19.6403 16.4726L10.7028 1.03506C10.6748 0.990106 10.6415 0.948648 10.6037 0.911558C10.5298 0.82329 10.4375 0.752301 10.3332 0.703592C10.2289 0.654883 10.1152 0.629639 10 0.629639C9.88492 0.629639 9.7712 0.654883 9.6669 0.703592C9.5626 0.752301 9.47024 0.82329 9.39635 0.911558C9.35852 0.948648 9.32525 0.990106 9.29722 1.03506L0.359722 16.4726C0.305363 16.5664 0.270333 16.6701 0.256696 16.7777C0.243059 16.8853 0.25109 16.9945 0.280318 17.0989C0.309546 17.2033 0.359378 17.3008 0.426878 17.3857C0.494378 17.4705 0.57818 17.541 0.673347 17.593L9.61085 22.468C9.73022 22.5331 9.86404 22.5673 10 22.5673C10.136 22.5673 10.2698 22.5331 10.3892 22.468L19.3267 17.593C19.4219 17.541 19.5057 17.4705 19.5732 17.3857C19.6407 17.3008 19.6905 17.2033 19.7197 17.0989C19.749 16.9945 19.757 16.8853 19.7434 16.7777C19.7297 16.6701 19.6947 16.5664 19.6403 16.4726ZM9.18753 4.46625V20.3847L2.18297 16.566L9.18753 4.46625ZM10.8125 20.3847V4.46625L17.8171 16.5644L10.8125 20.3847Z" fill="#917EFE"/>
</svg>
