<svg width="15" height="12" viewBox="0 0 15 12" fill="none" xmlns="http://www.w3.org/2000/svg">
<path fill-rule="evenodd" clip-rule="evenodd" d="M2.61636 0.871094C2.16035 0.871094 1.72302 1.05224 1.40057 1.37469C1.07812 1.69714 0.896973 2.13447 0.896973 2.59049V5.16957C0.896973 5.62559 1.07812 6.06292 1.40057 6.38537C1.72302 6.70782 2.16035 6.88897 2.61636 6.88897H5.19545C5.19545 7.57298 4.92373 8.22899 4.44006 8.71266C3.95638 9.19633 3.30038 9.46806 2.61636 9.46806H1.75667C1.52866 9.46806 1.31 9.55863 1.14877 9.71985C0.987548 9.88108 0.896973 10.0997 0.896973 10.3278C0.896973 10.5558 0.987548 10.7744 1.14877 10.9356C1.31 11.0969 1.52866 11.1874 1.75667 11.1874H2.61636C3.75639 11.1874 4.84973 10.7346 5.65585 9.92845C6.46197 9.12233 6.91485 8.029 6.91485 6.88897V2.59049C6.91485 2.13447 6.7337 1.69714 6.41125 1.37469C6.0888 1.05224 5.65146 0.871094 5.19545 0.871094H2.61636ZM10.3536 0.871094C9.89762 0.871094 9.46029 1.05224 9.13784 1.37469C8.81539 1.69714 8.63424 2.13447 8.63424 2.59049V5.16957C8.63424 5.62559 8.81539 6.06292 9.13784 6.38537C9.46029 6.70782 9.89762 6.88897 10.3536 6.88897H12.9327C12.9327 7.57298 12.661 8.22899 12.1773 8.71266C11.6936 9.19633 11.0376 9.46806 10.3536 9.46806H9.49393C9.26593 9.46806 9.04726 9.55863 8.88604 9.71985C8.72481 9.88108 8.63424 10.0997 8.63424 10.3278C8.63424 10.5558 8.72481 10.7744 8.88604 10.9356C9.04726 11.0969 9.26593 11.1874 9.49393 11.1874H10.3536C11.4937 11.1874 12.587 10.7346 13.3931 9.92845C14.1992 9.12233 14.6521 8.029 14.6521 6.88897V2.59049C14.6521 2.13447 14.471 1.69714 14.1485 1.37469C13.8261 1.05224 13.3887 0.871094 12.9327 0.871094H10.3536Z" fill="url(#paint0_linear_809_3947)"/>
<defs>
<linearGradient id="paint0_linear_809_3947" x1="7.77454" y1="0.871094" x2="7.77454" y2="11.1874" gradientUnits="userSpaceOnUse">
<stop stop-color="#917EFE"/>
<stop offset="1" stop-color="white"/>
</linearGradient>
</defs>
</svg>
