<svg width="20" height="19" viewBox="0 0 20 19" fill="none" xmlns="http://www.w3.org/2000/svg">
<path d="M6.04102 7.65337C6.04102 7.0934 6.26346 6.55636 6.65942 6.1604C7.05538 5.76444 7.59242 5.54199 8.15239 5.54199H15.013C15.2902 5.54199 15.5648 5.5966 15.821 5.70271C16.0771 5.80882 16.3099 5.96434 16.5059 6.1604C16.702 6.35646 16.8575 6.58922 16.9636 6.84538C17.0697 7.10154 17.1243 7.3761 17.1243 7.65337V14.514C17.1243 14.7912 17.0697 15.0658 16.9636 15.3219C16.8575 15.5781 16.702 15.8109 16.5059 16.0069C16.3099 16.203 16.0771 16.3585 15.821 16.4646C15.5648 16.5707 15.2902 16.6253 15.013 16.6253H8.15239C7.87512 16.6253 7.60057 16.5707 7.3444 16.4646C7.08824 16.3585 6.85548 16.203 6.65942 16.0069C6.46336 15.8109 6.30784 15.5781 6.20173 15.3219C6.09563 15.0658 6.04102 14.7912 6.04102 14.514V7.65337Z" stroke="#917EFE" stroke-width="1.58333" stroke-linecap="round" stroke-linejoin="round"/>
<path d="M3.67617 13.2501C3.4334 13.1117 3.23147 12.9117 3.09079 12.6702C2.95011 12.4288 2.87567 12.1544 2.875 11.875V3.95833C2.875 3.0875 3.5875 2.375 4.45833 2.375H12.375C12.9688 2.375 13.2918 2.67979 13.5625 3.16667" stroke="#917EFE" stroke-width="1.58333" stroke-linecap="round" stroke-linejoin="round"/>
</svg>
