<svg width="26" height="27" viewBox="0 0 26 27" fill="none" xmlns="http://www.w3.org/2000/svg">
<g clip-path="url(#clip0_1656_2955)">
<path d="M13 19.2793C15.9401 19.2793 18.332 16.8873 18.332 13.9473V6.2793C18.332 3.33921 15.9401 0.947266 13 0.947266C10.0599 0.947266 7.66797 3.33921 7.66797 6.2793V13.9473C7.66797 16.8873 10.0599 19.2793 13 19.2793Z" fill="url(#paint0_linear_1656_2955)"/>
<path d="M20.6172 11.6621C20.1965 11.6621 19.8555 12.0032 19.8555 12.4238V13.9473C19.8555 17.7274 16.7801 20.8027 13 20.8027C9.21989 20.8027 6.14453 17.7274 6.14453 13.9473V12.4238C6.14453 12.0032 5.80348 11.6621 5.38281 11.6621C4.96214 11.6621 4.62109 12.0032 4.62109 12.4238V13.9473C4.62109 18.3106 7.97382 21.905 12.2383 22.2912V25.4238H8.42969C8.00902 25.4238 7.66797 25.7649 7.66797 26.1855C7.66797 26.6062 8.00902 26.9473 8.42969 26.9473H17.5703C17.991 26.9473 18.332 26.6062 18.332 26.1855C18.332 25.7649 17.991 25.4238 17.5703 25.4238H13.7617V22.2912C18.0262 21.905 21.3789 18.3106 21.3789 13.9473V12.4238C21.3789 12.0032 21.0379 11.6621 20.6172 11.6621Z" fill="url(#paint1_linear_1656_2955)"/>
<path d="M5.38281 8.61523C5.80348 8.61523 6.14453 8.27419 6.14453 7.85352V4.04492C6.14453 3.62425 5.80348 3.2832 5.38281 3.2832C4.96214 3.2832 4.62109 3.62425 4.62109 4.04492V7.85352C4.62109 8.27419 4.96214 8.61523 5.38281 8.61523Z" fill="url(#paint2_linear_1656_2955)"/>
<path d="M2.33594 0.947266C1.91527 0.947266 1.57422 1.28831 1.57422 1.70898V10.1387C1.57422 10.5593 1.91527 10.9004 2.33594 10.9004C2.75661 10.9004 3.09766 10.5593 3.09766 10.1387V1.70898C3.09766 1.28831 2.75661 0.947266 2.33594 0.947266Z" fill="url(#paint3_linear_1656_2955)"/>
<path d="M20.6172 3.2832C20.1965 3.2832 19.8555 3.62425 19.8555 4.04492V7.85352C19.8555 8.27419 20.1965 8.61523 20.6172 8.61523C21.0379 8.61523 21.3789 8.27419 21.3789 7.85352V4.04492C21.3789 3.62425 21.0379 3.2832 20.6172 3.2832Z" fill="url(#paint4_linear_1656_2955)"/>
<path d="M23.6641 0.947266C23.2434 0.947266 22.9023 1.28831 22.9023 1.70898V10.1387C22.9023 10.5593 23.2434 10.9004 23.6641 10.9004C24.0847 10.9004 24.4258 10.5593 24.4258 10.1387V1.70898C24.4258 1.28831 24.0847 0.947266 23.6641 0.947266Z" fill="url(#paint5_linear_1656_2955)"/>
</g>
<defs>
<linearGradient id="paint0_linear_1656_2955" x1="8.67606" y1="0.251909" x2="21.3551" y2="0.749641" gradientUnits="userSpaceOnUse">
<stop stop-color="white"/>
<stop offset="1" stop-color="#8978F1"/>
</linearGradient>
<linearGradient id="paint1_linear_1656_2955" x1="6.20523" y1="11.0823" x2="26.0516" y2="12.5507" gradientUnits="userSpaceOnUse">
<stop stop-color="white"/>
<stop offset="1" stop-color="#8978F1"/>
</linearGradient>
<linearGradient id="paint2_linear_1656_2955" x1="4.76511" y1="3.08095" x2="6.57852" y2="3.11592" gradientUnits="userSpaceOnUse">
<stop stop-color="white"/>
<stop offset="1" stop-color="#8978F1"/>
</linearGradient>
<linearGradient id="paint3_linear_1656_2955" x1="1.71823" y1="0.569731" x2="3.53213" y2="0.588467" gradientUnits="userSpaceOnUse">
<stop stop-color="white"/>
<stop offset="1" stop-color="#8978F1"/>
</linearGradient>
<linearGradient id="paint4_linear_1656_2955" x1="19.9995" y1="3.08095" x2="21.8129" y2="3.11592" gradientUnits="userSpaceOnUse">
<stop stop-color="white"/>
<stop offset="1" stop-color="#8978F1"/>
</linearGradient>
<linearGradient id="paint5_linear_1656_2955" x1="23.0464" y1="0.569731" x2="24.8603" y2="0.588467" gradientUnits="userSpaceOnUse">
<stop stop-color="white"/>
<stop offset="1" stop-color="#8978F1"/>
</linearGradient>
<clipPath id="clip0_1656_2955">
<rect width="26" height="26" fill="white" transform="translate(0 0.947266)"/>
</clipPath>
</defs>
</svg>
